<svg width="376" height="605" viewBox="0 0 376 605" fill="none" xmlns="http://www.w3.org/2000/svg">
<g clip-path="url(#clip0_1_425)">
<path d="M219.382 0C200.426 2.9141 181.354 5.56852 161.966 7.38623C107.434 12.6662 56.3656 27.6118 6.22002 51.3574C-66.0554 85.4898 -133.31 127.499 -208.5 152.803V310.741C-129.502 271.213 -71.1623 204.449 -3.47443 146.34C118.86 40.7974 279.886 53.1174 429.486 16.1862C446.595 11.8007 462.983 6.26098 478.91 0H219.382Z" fill="#FFF4E0"/>
<path d="M406.634 104.13C327.434 139.301 248.234 166.567 166.38 193.832C94.22 218.444 36.14 263.309 -26.3256 311.666C-82.2705 354.223 -138.244 400.762 -208.5 406.879V528.002H-170.703C-148.689 492.744 -111.498 469.229 -72.98 454.139C-37.78 440.954 -3.47442 428.634 29.9656 409.303C38.7656 404.917 45.8056 397.877 54.6056 391.703C98.6056 363.571 137.326 339.826 181.326 311.666C206.86 295.826 229.74 281.775 257.006 274.735C340.62 251.884 407.471 207.018 481.42 164.807C513.677 146.457 548.213 136.82 583.5 133.3V74.7871C522.939 72.8252 462.81 78.7688 406.634 104.13Z" fill="#FFF4E0"/>
<path d="M420.714 395.22C367.914 425.111 308.074 424.245 252.649 443.577C226.249 453.242 192.635 459.647 159.138 485.326C143.327 497.444 134.296 513.544 121.168 527.999H583.5V325.801C576.806 326.32 570.055 327.157 563.245 328.369C508.714 337.169 467.34 369.714 420.714 395.22Z" fill="#FFF4E0"/>
</g>
<g clip-path="url(#clip1_1_425)">
<path d="M310.648 401.59C318.79 410.555 331.381 402.916 335.294 393.888C338.387 386.786 338.955 378.61 340.028 371.034C341.258 362.512 342.363 353.989 343.373 345.466C347.065 314.059 351.357 281.23 344.004 250.012C342.395 243.257 335.61 214.027 323.397 221.508C321.819 222.487 323.271 224.98 324.849 224.002C336.02 217.184 343.467 261.944 344.099 268.036C345.74 284.04 345.014 300.201 343.625 316.205C342.079 333.661 340.028 351.085 337.566 368.415C336.493 376.022 335.957 384.166 333.243 391.394C330.403 399.002 320.147 407.745 312.731 399.57C311.437 398.181 309.418 400.201 310.648 401.59Z" fill="#FFCE5C"/>
<path d="M-4.76547 322.204C-11.9289 307.747 -10.5404 291.396 -6.43798 276.244C-2.46181 261.566 3.59712 247.141 10.9814 233.852C25.403 207.936 48.7551 185.114 79.3337 181.232C81.164 181.011 81.164 178.107 79.3337 178.359C47.6821 182.4 23.478 205.506 8.48843 232.431C0.472979 246.825 -6.15397 262.703 -10.0354 278.706C-13.696 293.732 -14.2641 309.546 -7.22691 323.687C-6.43798 325.329 -3.94499 323.845 -4.76547 322.204Z" fill="#FFCE5C"/>
<path d="M568.972 347.043C556.917 346.223 544.263 345.181 535.048 346.254C515.136 348.559 496.517 357.176 477.173 362.384C457.292 367.719 436.654 369.487 416.142 371.191C401.184 372.454 386.226 373.716 371.236 373.716C357.509 373.748 343.782 372.769 330.118 371.538C308.438 369.613 286.348 367.561 264.195 364.815C214.115 358.628 163.876 348.969 118.15 329.651C107.042 324.948 96.0603 319.929 85.2362 314.594C34.2403 289.468 -13.4106 257.397 -56.0125 219.487C-72.0434 205.219 -87.3485 190.162 -101.865 174.317L-101.928 174.253C-104.831 171.065 -101.36 166.141 -97.4467 167.877L-76.1458 177.315C-72.7692 178.799 -68.7299 178.325 -66.016 175.8C-62.7341 172.738 -63.8701 168.919 -65.1639 165.573C-69.3926 154.588 -75.2622 144.266 -79.2068 133.187C-81.4158 126.937 -83.0883 117.12 -83.3723 107.745C-83.5301 102.473 -76.3982 100.926 -74.4417 105.788C-70.7495 114.942 -60.7775 131.892 -51.626 143.698C-50.1113 145.655 -47.145 143.635 -48.3441 141.457C-56.1387 127.505 -64.8484 109.386 -65.4795 99.2851C-65.6689 96.1601 -63.4599 93.2877 -60.3673 93.0036C-56.4227 92.6248 -54.7186 96.9808 -53.5826 100.485C-49.3855 113.269 -42.6639 125.485 -31.9976 133.471C-36.9205 125.863 -42.2536 115.194 -44.936 106.45C-46.4507 101.526 -40.0131 98.1803 -37.0152 102.315C-33.8595 106.671 -30.8616 113.174 -28.7157 116.93C-16.4717 138.269 -0.28301 157.271 18.7774 172.612C30.5166 182.082 43.2971 190.131 56.0146 198.18C79.8084 213.174 107.358 227.094 135.38 237.669C151.348 243.635 167.442 248.559 183.063 251.999C204.774 256.766 226.927 259.796 249.269 261.753C283.382 264.752 317.874 265.289 351.766 265.762C399.133 266.425 447.856 266.52 492.068 249.222C501.282 245.623 519.554 239.215 535.995 235.27C540.886 234.102 543.221 241.172 538.614 243.224C525.77 249.001 511.002 255.219 498.821 259.575C497.054 260.206 495.665 261.69 495.35 263.552C494.624 267.877 501.377 266.993 505.7 265.888L558.684 252.378C564.27 250.958 567.962 258.06 563.67 261.943C561.209 264.152 558.148 266.015 555.276 267.309C544.326 272.233 527.096 277.946 512.169 283.376C507.341 285.143 509.235 292.498 514.284 291.583C529.021 288.963 550.511 282.65 568.53 277.725C574.147 276.179 577.461 283.881 572.569 287.069C560.01 295.181 546.819 301.747 533.029 307.365C516.524 314.121 519.806 327.852 531.419 329.84C538.015 330.977 544.2 331.576 548.271 331.608C554.172 331.671 563.26 333.407 571.212 336.532C576.956 338.836 575.031 347.454 568.972 347.043Z" fill="#F6A460"/>
<path d="M143.838 278.137C150.401 298.339 170.85 304.115 186.408 297.392C202.597 290.763 215.219 275.517 224.371 259.103C208.813 257.177 191.993 255.946 176.815 252C165.833 249.159 154.598 245.277 143.364 240.637C139.956 252.789 140.619 266.047 143.838 278.137Z" fill="#F6A460"/>
<path d="M266.151 370.97C265.488 368.95 264.825 366.898 264.162 364.815C258.419 346.791 252.991 327.536 251.666 308.912C250.246 288.963 249.52 273.559 249.236 261.753C245.228 261.406 228.314 259.512 224.338 259.07C213.608 275.484 207.644 288.584 188.615 295.181C170.344 301.905 151.978 298.306 144.278 278.104C140.491 266.014 139.702 252.757 143.741 240.636C140.933 239.657 138.156 238.647 135.347 237.605C119.001 251.21 106.252 269.139 96.7846 288.016C92.4298 296.665 88.5799 305.535 85.2033 314.594C70.8133 352.946 64.5019 394.36 62.861 435.017C60.5889 491.488 63.1134 549.347 73.0854 604.997L422.673 591.55C355.677 528.23 295.183 460.269 266.151 370.97Z" fill="#FFCE5C"/>
<path d="M190.288 208.88C183.63 202.504 184.072 190.509 191.172 184.512C195.053 181.229 200.355 179.714 203.858 176.084C211.968 167.687 206.414 154.303 206.572 142.845C206.698 131.734 213.988 121.98 223.139 115.193C239.77 102.788 250.72 109.638 264.037 104.935C295.815 93.7289 290.481 76.0206 303.199 62.6999C315.916 49.4108 335.419 44.4234 354.037 44.3919C367.859 44.3919 380.829 51.7151 394.651 51.3047C410.776 50.8313 412.07 32.681 442.87 30.9134C464.297 29.7139 485.061 41.2669 495.033 59.6696C505.037 78.0724 499.862 108.533 482.411 120.812C469.693 129.745 443.911 133.502 428.417 131.608C412.196 129.619 402.729 117.34 389.286 126.431C373.855 136.847 373.476 160.332 358.676 171.538C347.095 180.313 330.811 178.64 316.263 176.936C301.747 175.231 285.085 174.568 274.545 184.512C267.382 191.298 263.942 202.346 254.57 205.692C241.442 210.364 226.042 196.349 213.924 203.167C210.674 204.998 208.37 208.091 205.341 210.269C202.311 212.447 197.736 213.52 194.99 211.058L190.288 208.88Z" fill="#4F3422"/>
<path d="M192.97 189.438C201.458 182.872 203.162 171.982 202.374 161.818C201.269 147.361 196.914 132.146 208.401 120.498C226.357 102.317 255.768 107.367 275.554 92.3419C286.41 84.1033 289.849 70.4354 298.938 60.6816C308.279 50.6437 321.375 44.2675 335.07 43.289C357.823 41.6791 389.569 54.7157 406.673 32.7145C411.974 25.8648 414.909 10.1451 402.981 8.15646C399.289 7.55671 394.808 9.0403 393.293 12.7335C391.747 16.5213 395.88 18.9835 399.226 17.9102C400.993 17.342 400.235 14.5643 398.468 15.1325C397.711 14.5327 396.985 13.9014 396.228 13.3017C397.017 12.1969 398.058 11.5024 399.352 11.1552C400.74 10.7133 402.413 10.7764 403.77 11.2815C407.178 12.5441 408.566 16.3635 408.598 19.7095C408.661 25.3597 405.379 30.6312 401.245 34.2612C393.04 41.4266 381.364 43.2258 370.856 42.8155C357.854 42.3104 344.916 39.0907 331.883 40.7006C322.321 41.9001 313.107 45.5933 305.312 51.2435C297.013 57.2725 291.459 65.0061 286.473 73.876C283.475 79.179 280.414 84.4505 275.775 88.4593C271.199 92.405 265.74 95.1197 260.091 97.1398C241.851 103.706 219.446 104.084 205.498 119.362C197.545 128.106 196.82 139.059 198.145 150.328C199.533 162.354 202.721 178.327 191.55 186.912C190.066 188.049 191.486 190.542 192.97 189.438Z" fill="#4F3422"/>
<path d="M236.268 199.695C245.766 204.367 257.032 203.735 265.647 197.391C270.318 193.95 273.947 189.057 279.059 186.185C286.222 182.176 294.427 183.502 302.032 185.459C314.055 188.521 325.479 191.867 338.039 190.257C348.673 188.9 358.077 184.228 365.272 176.21C372.846 167.751 378.021 156.924 387.394 150.2C398.754 142.056 413.681 142.845 426.714 145.529C449.529 150.169 477.52 162.037 496.738 142.246C501.914 136.911 510.15 121.854 500.367 117.183C497.18 115.667 492.952 115.825 490.806 118.95C488.786 121.917 489.48 125.989 492.604 127.757C494.214 128.673 495.665 126.179 494.056 125.263C489.701 122.801 494.719 118.477 498.032 119.361C500.02 119.897 501.251 121.191 501.661 123.401C502.071 125.737 501.409 128.546 500.651 130.724C498.916 135.933 495.16 140.352 490.806 143.603C481.875 150.263 470.925 151.368 460.132 150.042C439.273 147.454 418.509 136.564 397.176 142.435C378.4 147.612 372.72 166.236 359.34 178.073C351.229 185.238 340.5 187.953 329.865 187.826C319.01 187.669 309.259 183.849 298.75 181.703C288.242 179.556 279.532 181.103 271.517 188.331C267.067 192.309 263.091 196.602 257.285 198.59C250.815 200.8 243.841 200.2 237.751 197.201C236.047 196.381 234.595 198.874 236.268 199.695Z" fill="#4F3422"/>
<path d="M84.762 328.358C73.6856 316.995 55.2248 318.478 39.6988 321.824C24.1728 325.17 6.97427 329.337 -6.72143 321.319C-7.66814 317.563 -4.29155 313.996 -0.725618 312.481C2.87187 310.966 6.91115 310.587 10.2246 308.535C21.0486 301.78 16.3467 283.598 25.1195 274.318C32.1882 266.869 45.9155 267.563 51.0593 258.662C57.1497 248.119 46.1364 232.02 54.8776 223.561C57.1182 221.383 60.2108 220.373 62.9878 219.015C77.6617 211.913 85.2354 192.91 79.5236 177.633C86.2137 177.412 92.2726 181.957 96.091 187.45C99.9093 192.942 102.024 199.413 104.769 205.505C110.512 218.163 124.492 228.958 135.348 237.639C136.768 238.775 133.076 240.448 133.707 242.153C134.306 243.794 133.991 245.593 133.644 247.298C130.204 265.038 126.701 282.904 119.885 299.634C113.069 316.363 102.56 332.052 87.6021 342.216L84.762 328.358Z" fill="#FFCE5C"/>
<path d="M242.043 268.132C263.375 244.268 293.417 227.507 325.889 221.352C314.781 230.379 302.664 241.774 304.368 255.506C304.873 259.514 306.577 263.46 306.103 267.5C304.683 279.653 284.865 285.524 286.159 297.677C287.011 305.758 297.394 311.25 296.826 319.363C296.258 327.317 285.181 332.81 286.727 340.638C287.706 345.594 293.386 348.371 296.131 352.696C300.171 359.041 297.267 367.121 297.835 374.476C298.593 384.64 308.091 399.95 318.568 402.349C287.358 403.296 255.076 380.632 239.928 354.937C224.75 329.243 226.201 295.594 243.526 271.13L242.043 268.132Z" fill="#FFCE5C"/>
<path d="M271.518 384.828C249.712 370.623 228.38 354.967 222.7 327.978C217.335 302.536 228.001 276.21 248.986 261.059C250.091 260.238 249.018 258.376 247.882 259.197C226.991 274.285 215.852 299.885 220.017 325.453C224.751 354.556 247.188 371.602 270.414 386.69C271.613 387.447 272.686 385.585 271.518 384.828Z" fill="#4F3422"/>
<path d="M81.8593 328.927C93.5353 295.909 111.081 263.965 135.222 238.396C136.169 237.386 134.654 235.84 133.676 236.881C109.282 262.765 91.5788 294.994 79.7765 328.358C79.3032 329.653 81.3859 330.221 81.8593 328.927Z" fill="#4F3422"/>
<path d="M65.5453 308.347C67.8805 308.22 69.9633 308.852 71.8882 310.177C73.0243 310.967 74.1288 309.104 72.9927 308.315C70.8153 306.8 68.2276 306.042 65.5768 306.2C64.1568 306.232 64.1568 308.41 65.5453 308.347Z" fill="#4F3422"/>
<path d="M71.7623 292.213C74.1922 294.581 76.7799 296.727 79.5253 298.684C80.6614 299.505 81.7343 297.611 80.6298 296.822C78.0106 294.96 75.5807 292.908 73.3086 290.667C72.2672 289.72 70.7525 291.235 71.7623 292.213Z" fill="#4F3422"/>
<path d="M103.823 247.708C107.042 249.129 110.292 250.518 113.511 251.938C114.773 252.475 115.878 250.612 114.615 250.076C111.397 248.655 108.146 247.267 104.928 245.846C103.665 245.309 102.561 247.172 103.823 247.708Z" fill="#4F3422"/>
<path d="M113.1 241.362C114.015 244.171 115.877 246.507 118.465 247.927C119.695 248.59 120.768 246.728 119.569 246.065C117.487 244.897 115.94 243.066 115.183 240.794C114.773 239.468 112.69 240.036 113.1 241.362Z" fill="#4F3422"/>
<path d="M117.93 230.601C119.287 234.042 121.465 236.851 124.431 239.029C125.567 239.85 126.64 237.987 125.535 237.167C123.074 235.336 121.149 232.874 120.045 230.033C119.508 228.739 117.394 229.307 117.93 230.601Z" fill="#4F3422"/>
<path d="M239.865 277.097C242.799 276.371 245.734 275.645 248.669 274.919C250.026 274.572 249.458 272.489 248.101 272.836C245.166 273.562 242.231 274.288 239.297 275.014C237.94 275.329 238.508 277.413 239.865 277.097Z" fill="#4F3422"/>
<path d="M235.604 288.741C238.854 288.331 242.01 288.583 245.166 289.562C246.491 289.972 247.059 287.889 245.734 287.478C242.42 286.437 239.043 286.153 235.604 286.563C234.247 286.752 234.215 288.931 235.604 288.741Z" fill="#4F3422"/>
<path d="M228.819 335.65C231.059 337.986 233.3 340.322 235.541 342.689C236.519 343.7 238.034 342.153 237.087 341.174C234.846 338.838 232.606 336.503 230.365 334.135C229.387 333.093 227.872 334.64 228.819 335.65Z" fill="#4F3422"/>
<path d="M229.388 330.155C232.355 330.692 235.321 331.229 238.287 331.797C239.644 332.049 240.244 329.966 238.855 329.713C235.889 329.177 232.923 328.64 229.956 328.072C228.599 327.819 228 329.903 229.388 330.155Z" fill="#4F3422"/>
<path d="M228.22 320.909C230.839 322.33 233.648 323.087 236.583 323.15C237.971 323.182 237.971 321.036 236.583 320.972C233.995 320.909 231.565 320.246 229.293 319.015C228.062 318.384 226.989 320.246 228.22 320.909Z" fill="#4F3422"/>
<path d="M218.471 143.571C220.743 131.797 229.358 122.359 240.94 119.171C242.738 118.666 241.981 115.888 240.182 116.393C227.686 119.834 218.155 130.061 215.694 142.814C215.347 144.644 218.124 145.402 218.471 143.571Z" fill="#251404"/>
<path d="M282.436 111.787C289.094 107.62 295.974 103.201 299.918 96.1616C302.127 92.2475 303.611 87.9862 306.104 84.2299C308.881 80.0632 312.32 76.5279 316.202 73.4029C317.653 72.2349 315.602 70.2147 314.151 71.3511C307.713 76.4963 302.979 82.8094 299.54 90.2905C295.469 99.192 289.094 104.211 280.953 109.293C279.406 110.271 280.858 112.765 282.436 111.787Z" fill="#251404"/>
<path d="M334.092 64.1207C345.926 54.9667 361.231 59.6384 373.98 63.8997C375.747 64.4995 376.505 61.6902 374.738 61.122C360.726 56.4818 344.822 52.1889 332.041 62.1005C330.558 63.2053 332.641 65.2255 334.092 64.1207Z" fill="#251404"/>
<path d="M194.801 262.924L208.055 176.023C208.055 176.023 165.074 184.988 157.501 217.185L175.393 218.826L156.617 249.035C149.738 260.114 154.944 274.761 167.283 278.99C167.504 279.054 167.693 279.148 167.914 279.211C180.001 283.283 192.876 275.518 194.801 262.924Z" fill="#F6A460"/>
<path d="M215.03 215.514C210.58 218.039 204.931 216.461 202.407 212.01C199.882 207.559 201.46 201.909 205.91 199.384C210.359 196.859 216.008 198.437 218.532 202.888C221.025 207.338 219.479 212.989 215.03 215.514Z" fill="#F6A460"/>
<path d="M206.447 209.106C209.792 208.475 213.137 207.875 216.482 207.307C217.839 207.086 217.271 205.002 215.914 205.223C212.569 205.792 209.224 206.391 205.879 207.023C204.522 207.275 205.09 209.359 206.447 209.106Z" fill="#4F3422"/>
<path d="M175.363 218.828L157.691 247.332L188.649 219.112L175.363 218.828Z" fill="#4F3422"/>
<path d="M169.936 200.582C169.936 200.582 181.517 203.612 191.268 204.37C191.268 204.37 173.092 214.313 163.277 210.683L169.936 200.582Z" fill="white"/>
<path d="M186.942 183.253C181.23 185.241 175.424 187.735 170.217 190.797C169.554 191.176 169.459 192.312 170.217 192.659C172.363 193.701 174.477 194.711 176.623 195.753C177.885 196.352 178.958 194.49 177.727 193.89C175.581 192.848 173.467 191.838 171.321 190.797C171.321 191.428 171.321 192.028 171.321 192.659C176.37 189.692 181.987 187.293 187.51 185.336C188.835 184.894 188.267 182.811 186.942 183.253Z" fill="#4F3422"/>
<path d="M190.73 195.595C193.223 193.922 197.736 196.132 198.966 198.531C199.598 199.762 201.459 198.689 200.828 197.426C199.061 194.017 193.065 191.366 189.626 193.701C188.49 194.491 189.594 196.385 190.73 195.595Z" fill="#4F3422"/>
</g>
<defs>
<clipPath id="clip0_1_425">
<rect width="375" height="528" fill="white"/>
</clipPath>
<clipPath id="clip1_1_425">
<rect width="375" height="597" fill="white" transform="translate(1 8)"/>
</clipPath>
</defs>
</svg>
