<svg width="375" height="653" viewBox="0 0 375 653" fill="none" xmlns="http://www.w3.org/2000/svg">
<g clip-path="url(#clip0_1_428)">
<mask id="mask0_1_428" style="mask-type:luminance" maskUnits="userSpaceOnUse" x="-172" y="-115" width="837" height="768">
<path d="M664.178 225.557L74.8438 -114.695L-171.753 312.424L417.581 652.676L664.178 225.557Z" fill="white"/>
</mask>
<g mask="url(#mask0_1_428)">
<g opacity="0.48">
<path d="M177.319 -6.05128C81.3945 17.7077 -9.1327 90.1825 -60.9692 184.8C-74.4637 209.446 -85.6842 236.412 -86.3761 263.411C-87.054 290.386 -75.1868 299.805 -52.5649 308.153C-22.4946 319.274 64.3005 302.269 95.6858 303.326C112.698 303.885 168.631 298.249 170.743 316.271C172.131 328.319 162.757 335.192 154.291 344.767C132.662 369.202 109.928 380.03 100.165 411.087C93.8353 431.159 99.0291 452.391 110.034 467.325C121.024 482.283 137.136 491.78 153.857 498.899C196.373 517.01 244.309 521.512 292.148 520.889C351.385 520.117 413.632 510.976 468.236 477.109C482.787 468.089 498.186 454.749 500.094 437.552C502.195 418.647 487.188 405.659 473.585 395.888C451.512 380.024 429.425 364.185 407.33 348.308C394 338.727 379.398 326.461 380.301 308.002C381.079 292.558 392.758 278.792 404.752 268.654C423.769 252.559 446.411 244.538 467.228 232.603C485.077 222.4 515.145 200.141 513.937 175.619C513.688 170.503 511.612 165.957 508.931 162.101C496.176 143.687 470.737 136.605 450.065 131.495C423.254 124.856 395.377 121.437 367.082 121.286C335.328 121.122 302.153 124.946 273.351 114.071C263.875 110.485 254.268 104.223 252.567 93.3283C249.405 73.1067 273.862 56.5458 280.215 35.7723C287.881 10.6872 265.931 -10.2738 243.119 -13.6614C220.315 -17.012 205.553 -11.8512 177.319 -6.05128Z" fill="#F6F1FF"/>
</g>
</g>
</g>
<g clip-path="url(#clip1_1_428)">
<path d="M207.501 177.081C214.302 163.404 224.63 151.965 237.546 143.856C238.815 143.068 237.647 141.06 236.379 141.848C223.132 150.16 212.474 161.879 205.496 175.911C204.811 177.259 206.816 178.428 207.501 177.081Z" fill="white"/>
<path d="M285.454 355.15C287.89 321.494 265.255 288.269 236.631 274.161C233.611 272.687 230.414 275.813 231.505 279.169C232.343 281.711 233.916 284.177 235.591 286.21C237.824 288.93 242.112 292.972 244.574 296.912C245.843 298.946 244.066 301.564 241.859 300.903C223.613 295.362 206.967 285.499 206.967 285.499C198.72 279.576 188.595 274.339 181.134 272.839C177.429 272.102 174.815 276.525 177.023 279.804C180.297 284.685 184.534 290.278 187.376 291.422C182.834 290.71 178.419 285.778 173.521 287.431C171.491 288.117 169.969 290.074 169.943 292.388C169.867 299.2 181.667 299.988 184.205 306.191C181.109 305.377 174.536 304.183 171.466 303.318C171.39 303.293 171.314 303.267 171.212 303.242C164.716 301.488 161.747 311.504 167.939 314.275L198.39 327.925C201.968 329.527 200.496 335.272 196.664 334.636L178.064 331.56C175.78 331.23 173.496 332.501 172.684 334.814C171.111 339.212 176.287 341.754 180.119 343.254C190.498 347.321 198.72 357.337 201.13 368.903C201.587 371.089 212.905 540.035 213.032 542.196C215.722 583.885 274.289 608.162 297.001 563.498L285.454 355.15Z" fill="#F6A460"/>
<path d="M229.324 331.539C235.237 335.81 242.976 339.852 246.732 346.308C250.31 352.46 250.919 359.908 251.503 366.823C251.63 368.297 253.939 368.322 253.812 366.823C253.203 359.476 252.492 351.647 248.711 345.139C244.727 338.276 236.709 334.056 230.466 329.531C229.299 328.641 228.132 330.649 229.324 331.539Z" fill="#4F3422"/>
<path d="M243.942 279.221C240.947 278.839 238.486 276.882 237.039 274.264C236.304 272.967 234.299 274.137 235.035 275.433C236.913 278.814 240.11 281.051 243.942 281.534C245.439 281.737 245.413 279.399 243.942 279.221Z" fill="#4F3422"/>
<path d="M212.117 304.186C202.829 298.593 193.542 293.001 184.254 287.408C182.96 286.646 181.793 288.654 183.087 289.416C192.375 295.009 201.662 300.601 210.95 306.194C212.218 306.956 213.411 304.948 212.117 304.186Z" fill="#4F3422"/>
<path d="M208.005 316.083C198.921 312.575 190.115 308.482 181.563 303.83C180.244 303.118 179.077 305.126 180.396 305.838C189.125 310.592 198.134 314.761 207.396 318.32C208.792 318.853 209.375 316.616 208.005 316.083Z" fill="#4F3422"/>
<path d="M232.163 304.139C230.108 306.248 228.585 308.689 227.494 311.409C226.936 312.807 229.194 313.392 229.727 312.019C230.666 309.68 232.037 307.57 233.813 305.765C234.853 304.723 233.204 303.071 232.163 304.139Z" fill="white"/>
<path d="M221.583 316.437C219.858 318.42 218.157 320.402 216.432 322.36C215.467 323.478 217.092 325.131 218.081 324.012C219.807 322.029 221.507 320.047 223.232 318.089C224.197 316.945 222.547 315.293 221.583 316.437Z" fill="white"/>
<path d="M204.912 340.076C204.303 342.135 203.364 344.016 202.095 345.77C201.207 346.99 203.237 348.134 204.1 346.939C205.47 345.033 206.485 342.923 207.145 340.686C207.576 339.262 205.343 338.652 204.912 340.076Z" fill="white"/>
<path d="M173.928 364.914C188.9 337.079 182.277 299.99 163.22 276.934C161.215 274.494 157.256 275.968 156.926 279.247C156.673 281.738 157.079 284.458 157.713 286.848C158.576 290.025 160.682 295.135 161.291 299.456C161.596 301.693 159.083 303.244 157.459 301.821C143.985 290.076 133.53 275.231 133.53 275.231C128.734 266.995 122.085 258.631 116.3 254.488C113.432 252.429 109.473 255.2 110.108 258.86C111.047 264.3 112.519 270.706 114.523 272.765C110.92 270.426 109.042 264.503 104.221 264.02C102.216 263.817 100.16 264.936 99.2723 266.867C96.5825 272.663 106.378 277.875 106.175 284.153C103.84 282.272 98.6887 278.739 96.3795 276.807C96.3287 276.756 96.2526 276.705 96.2018 276.654C91.3297 272.663 84.9349 280.086 89.1727 284.84L109.956 308.226C112.392 310.972 108.941 315.319 105.921 313.311L91.2028 303.549C89.3757 302.38 86.9396 302.609 85.3663 304.261C82.3466 307.413 85.7977 311.582 88.4875 314.327C95.8212 321.801 98.9932 333.52 96.6078 344.323C96.1511 346.382 -6.22757 570.421 -6.9381 572.302C-20.6157 608.958 33.4857 633.464 70.0016 604.001L173.928 364.914Z" fill="#4F3422"/>
<path d="M134.875 323.097C138.326 329.096 143.502 335.655 144.162 342.696C144.797 349.28 142.437 355.864 140.305 361.965C139.797 363.388 142.056 363.999 142.538 362.575C144.898 355.839 147.334 348.645 146.344 341.425C145.355 334.358 140.356 327.978 136.879 321.928C136.143 320.631 134.139 321.801 134.875 323.097Z" fill="#4F3422"/>
<path d="M167.687 284.049C165.302 282.575 163.855 280.083 163.601 277.287C163.475 275.813 161.14 275.787 161.292 277.287C161.597 280.897 163.398 284.125 166.52 286.057C167.789 286.845 168.956 284.837 167.687 284.049Z" fill="#4F3422"/>
<path d="M130.891 293.2C125.08 284.862 119.295 276.499 113.484 268.161C112.646 266.94 110.616 268.11 111.479 269.33C117.29 277.668 123.076 286.031 128.887 294.369C129.724 295.589 131.729 294.445 130.891 293.2Z" fill="#4F3422"/>
<path d="M122.819 301.746C116.399 295.263 110.436 288.4 104.904 281.13C104.016 279.96 101.986 281.104 102.899 282.299C108.533 289.722 114.623 296.763 121.17 303.372C122.235 304.466 123.885 302.813 122.819 301.746Z" fill="#4F3422"/>
<path d="M147.992 300.729C145.429 301.746 143.145 303.195 141.141 305.127C140.075 306.169 141.699 307.821 142.79 306.779C144.465 305.152 146.419 303.83 148.601 302.991C149.997 302.432 149.388 300.17 147.992 300.729Z" fill="white"/>
<path d="M133.961 307.287C131.728 308.329 129.521 309.346 127.288 310.388C125.943 311.024 127.11 313.032 128.455 312.396C130.688 311.354 132.896 310.337 135.129 309.295C136.474 308.659 135.306 306.651 133.961 307.287Z" fill="white"/>
<path d="M110.869 320.937C109.55 322.462 108.053 323.733 106.302 324.75C105.008 325.487 106.175 327.495 107.469 326.758C109.372 325.665 111.072 324.267 112.494 322.589C113.483 321.445 111.834 319.793 110.869 320.937Z" fill="white"/>
<path d="M89.8573 355.432C85.3404 354.288 81.1787 356.931 79.2502 361.075C77.144 365.651 78.7426 370.76 81.1026 374.904C87.0659 385.402 96.5819 394.681 106.098 401.926C115.868 409.399 127.008 415.119 138.934 418.169C143.806 419.415 149.846 420.61 154.134 417.178C158.068 414.051 158.474 408.687 158.677 404.035C158.753 402.536 156.418 402.536 156.368 404.035C156.114 409.73 155.124 416.288 148.222 417.025C143.629 417.508 138.604 415.78 134.291 414.382C125.688 411.56 117.593 407.315 110.234 402.078C102.799 396.816 96.1251 390.512 90.2887 383.521C87.0406 379.632 83.4118 375.361 81.5848 370.557C79.5801 365.269 81.6609 355.711 89.2483 357.643C90.6947 358.05 91.3037 355.813 89.8573 355.432Z" fill="#ED7E1C"/>
<path d="M88.2076 364.125C80.7725 364.1 69.1757 367.837 72.0939 377.7C73.2612 381.589 76.687 384.36 79.9097 386.52C84.5535 389.622 89.5779 392.291 94.6785 394.579C114.319 403.4 137.031 406.933 158.347 403.273C162.432 402.586 167.127 401.112 168.979 396.994C170.476 393.689 169.664 389.723 166.442 387.868C165.147 387.131 163.98 389.139 165.274 389.876C168.446 391.706 167.685 396.028 165.249 398.138C163.346 399.815 160.707 400.451 158.271 400.908C153.17 401.849 147.866 402.179 142.69 402.256C132.59 402.383 122.49 401.112 112.746 398.519C102.976 395.926 93.5873 392.011 84.8834 386.851C80.9248 384.487 75.2913 381.462 74.1748 376.556C72.3477 368.472 82.5234 366.413 88.2076 366.438C89.7048 366.464 89.7048 364.125 88.2076 364.125Z" fill="#ED7E1C"/>
<path d="M303.574 137.122C301.29 133.716 298.93 130.716 296.545 128.098C256.933 76.6471 200.979 130.665 184.738 169.457C182.15 165.364 179.13 161.221 178.42 160.077C172.253 150.061 165.58 140.63 157.028 132.852C148.984 125.531 139.62 119.43 129.622 115.82C115.538 108.931 99.8306 106.542 84.6812 112.414C64.482 120.243 52.7583 140.707 55.9557 163.737C60.3711 195.64 79.5045 224.848 96.7094 250.37C117.619 281.434 175.831 328.741 175.831 328.741C176.72 328.284 177.582 327.826 178.471 327.343C179.46 328.182 179.993 328.639 179.993 328.639C211.84 312.726 242.849 285.959 266.728 255.378C288.069 228.051 326.158 170.753 303.574 137.122Z" fill="#C2B1FF"/>
<path d="M364.805 462.605C362.217 458.359 300.959 357.059 298.396 352.814C285.582 331.715 276.218 309.015 267.159 286.035C257.998 262.775 262.946 235.067 279.847 217.044C280.608 216.23 283.755 214.756 284.846 214.502C287.104 213.993 289.185 216.408 289.21 218.721C289.236 221.035 287.891 223.145 286.521 225C284.237 228.127 281.724 231.203 280.506 234.889C279.288 238.575 279.694 243.1 282.613 245.642C286.825 245.921 288.754 240.557 289.413 236.389C291.824 221.314 293.803 205.604 298.32 191.013C299.386 187.581 303.7 184.073 306.999 185.471C309.08 186.361 309.663 189.005 309.917 191.267C311.414 204.893 309.486 218.416 308.293 232.092C308.775 220.882 311.338 209.926 311.82 198.715C311.947 195.69 311.643 191.547 313.013 188.852C314.383 186.158 317.352 184.023 320.296 184.582C322.935 185.09 324.813 187.581 325.447 190.174C326.107 192.767 326.234 196.529 325.955 199.199C324.635 211.4 324.381 223.729 325.193 235.982C325.346 226.144 326.437 216.332 328.492 206.723C329.177 203.571 330.269 200.012 333.187 198.665C336.689 197.063 340.901 199.758 342.424 203.266C343.972 206.774 343.591 210.79 343.388 214.629C341.713 244.574 343.769 293.076 456.285 440.184L364.805 462.605Z" fill="#4F3422"/>
<path d="M319.156 184.864C317.785 190.227 319.46 195.845 323.698 199.455C324.84 200.421 326.489 198.794 325.347 197.803C321.744 194.701 320.221 190.1 321.414 185.474C321.769 184.025 319.536 183.415 319.156 184.864Z" fill="white"/>
<path d="M304.639 186.183C302.229 191.038 303.599 196.707 307.888 200.012C309.08 200.927 310.222 198.893 309.055 198.004C305.832 195.512 304.868 190.988 306.644 187.352C307.304 186.005 305.299 184.836 304.639 186.183Z" fill="white"/>
<path d="M334.735 198.257C333.872 201.613 334.177 205.045 335.674 208.197C336.435 209.798 337.501 211.298 338.795 212.518C339.658 213.357 342.17 214.247 342.601 215.111C342.728 214.577 342.88 214.044 343.007 213.51C342.931 213.561 342.83 213.611 342.754 213.662C343.286 213.789 343.819 213.942 344.352 214.069C344.302 214.018 344.276 213.942 344.225 213.891C343.388 212.671 341.358 213.84 342.221 215.06C342.271 215.111 342.297 215.188 342.348 215.238C342.703 215.747 343.363 216.001 343.946 215.645C344.022 215.594 344.124 215.543 344.2 215.493C344.758 215.162 344.911 214.476 344.606 213.891C344.225 213.128 343.642 213.001 342.931 212.595C341.256 211.603 339.835 210.434 338.744 208.807C336.74 205.858 336.131 202.274 336.993 198.817C337.349 197.419 335.115 196.809 334.735 198.257Z" fill="white"/>
<path d="M325.017 217.02C324.991 224.316 325.473 231.561 326.463 238.805C326.666 240.28 328.899 239.644 328.696 238.195C327.757 231.179 327.3 224.138 327.326 217.046C327.351 215.52 325.017 215.52 325.017 217.02Z" fill="white"/>
<path d="M309.054 206.059C308.192 217.879 307.329 229.7 306.441 241.52C306.339 243.02 308.648 242.995 308.775 241.52C309.638 229.7 310.501 217.879 311.389 206.059C311.491 204.585 309.156 204.585 309.054 206.059Z" fill="white"/>
<path d="M340.167 247.978C337.578 248.08 335.117 248.588 332.706 249.554C331.336 250.088 331.945 252.351 333.315 251.791C335.523 250.902 337.781 250.393 340.141 250.292C341.664 250.241 341.664 247.902 340.167 247.978Z" fill="white"/>
<path d="M322.63 250.825C320.093 251.359 317.555 251.588 314.967 251.512C313.469 251.461 313.469 253.8 314.967 253.825C317.758 253.901 320.524 253.647 323.239 253.062C324.686 252.757 324.077 250.52 322.63 250.825Z" fill="white"/>
<path d="M304.282 251.009C301.262 251.289 298.242 251.568 295.223 251.848C293.751 251.975 293.726 254.314 295.223 254.161C298.242 253.881 301.262 253.602 304.282 253.322C305.754 253.195 305.754 250.882 304.282 251.009Z" fill="white"/>
<path d="M272.613 258.554C270.583 259.545 268.401 260.104 266.142 260.206C264.645 260.282 264.645 262.595 266.142 262.519C268.832 262.392 271.37 261.731 273.781 260.536C275.126 259.901 273.958 257.893 272.613 258.554Z" fill="white"/>
<path d="M276.068 223.628C281.396 225.992 287.157 221.29 285.406 215.545C284.974 214.121 282.716 214.731 283.173 216.155C284.264 219.764 280.838 223.222 277.26 221.62C275.89 221.035 274.697 223.018 276.068 223.628Z" fill="white"/>
<path d="M409.233 543L308.852 381.588L391.146 332.934L503.449 499.4L409.233 543Z" fill="#C2B1FF"/>
<path d="M292.078 324.927C292.687 328.587 290.2 332.07 286.546 332.68C282.892 333.29 279.416 330.799 278.807 327.138C278.198 323.478 280.684 319.995 284.339 319.385C287.993 318.775 291.469 321.266 292.078 324.927Z" fill="white"/>
<path d="M305.781 322.08C306.39 325.74 303.904 329.223 300.249 329.833C296.595 330.443 293.119 327.952 292.51 324.291C291.901 320.631 294.388 317.148 298.042 316.538C301.721 315.928 305.172 318.394 305.781 322.08Z" fill="white"/>
<path d="M328.16 312.93C328.769 316.591 326.282 320.074 322.628 320.684C318.974 321.294 315.498 318.803 314.889 315.142C314.28 311.481 316.766 307.999 320.421 307.389C324.1 306.779 327.551 309.27 328.16 312.93Z" fill="white"/>
<path d="M347.399 304.818C348.008 308.478 345.521 311.961 341.867 312.571C338.212 313.181 334.736 310.69 334.127 307.029C333.518 303.369 336.005 299.886 339.659 299.276C343.338 298.666 346.79 301.132 347.399 304.818Z" fill="white"/>
<path d="M363.918 293.583C364.527 297.243 362.04 300.726 358.386 301.336C354.732 301.946 351.255 299.455 350.646 295.794C350.037 292.134 352.524 288.651 356.178 288.041C359.833 287.431 363.309 289.922 363.918 293.583Z" fill="white"/>
<path d="M1.37081 462.605C3.95915 458.359 65.2166 357.059 67.7796 352.814C80.5944 331.715 89.9581 309.015 99.0173 286.035C108.178 262.775 103.23 235.067 86.3293 217.044C85.5681 216.23 82.4215 214.756 81.3303 214.502C79.0718 213.993 76.991 216.408 76.9656 218.721C76.9403 221.035 78.2852 223.145 79.6555 225C81.9393 228.127 84.4515 231.203 85.6696 234.889C86.8876 238.575 86.4816 243.1 83.5634 245.642C79.351 245.921 77.4224 240.557 76.7626 236.389C74.3519 221.314 72.3726 205.604 67.8557 191.013C66.7899 187.581 62.476 184.073 59.1771 185.471C57.0963 186.361 56.5126 189.005 56.2589 191.267C54.7617 204.893 56.6903 218.416 57.8829 232.092C57.4008 220.882 54.8378 209.926 54.3557 198.715C54.2288 195.69 54.5333 191.547 53.163 188.852C51.7927 186.158 48.8237 184.023 45.8801 184.582C43.241 185.09 41.3632 187.581 40.7288 190.174C40.0691 192.767 39.9422 196.529 40.2213 199.199C41.5409 211.4 41.7946 223.729 40.9826 235.982C40.8303 226.144 39.7392 216.332 37.6837 206.723C36.9986 203.571 35.9074 200.012 32.9892 198.665C29.4873 197.063 25.2749 199.758 23.7523 203.266C22.2044 206.774 22.5851 210.79 22.7881 214.629C24.4629 244.574 22.4074 293.076 -90.1094 440.184L1.37081 462.605Z" fill="#C0A091"/>
<path d="M44.7875 185.474C45.9801 190.1 44.4576 194.701 40.8542 197.803C39.7123 198.769 41.3617 200.421 42.5036 199.455C46.7414 195.845 48.4162 190.227 47.0459 184.864C46.6653 183.415 44.4068 184.025 44.7875 185.474Z" fill="#4F3422"/>
<path d="M59.5309 187.352C61.3326 190.962 60.343 195.512 57.1202 198.004C55.9529 198.893 57.1202 200.927 58.2875 200.012C62.5507 196.707 63.921 191.038 61.5356 186.183C60.8759 184.836 58.8712 186.005 59.5309 187.352Z" fill="#4F3422"/>
<path d="M29.1834 198.869C30.0716 202.326 29.4372 205.885 27.4325 208.859C26.4428 210.334 25.1233 211.528 23.6007 212.444C22.7887 212.927 22.002 213.079 21.5453 213.943C21.2661 214.503 21.393 215.189 21.9513 215.545C22.0274 215.596 22.1289 215.647 22.205 215.697C22.7633 216.053 23.4485 215.799 23.8037 215.291C23.8545 215.24 23.8798 215.164 23.9306 215.113C24.7934 213.893 22.7633 212.723 21.9259 213.943C21.8751 213.994 21.8498 214.071 21.799 214.121C22.3319 213.994 22.8648 213.842 23.3977 213.715C23.3216 213.664 23.2201 213.613 23.1439 213.562C23.2708 214.096 23.4231 214.63 23.55 215.164C23.9814 214.299 26.4682 213.41 27.3563 212.571C28.6505 211.351 29.7163 209.851 30.4776 208.249C31.9748 205.097 32.2793 201.665 31.4165 198.31C31.0612 196.81 28.8281 197.42 29.1834 198.869Z" fill="#4F3422"/>
<path d="M38.8521 217.019C38.8775 224.111 38.4461 231.152 37.4818 238.168C37.2788 239.643 39.5119 240.253 39.7149 238.779C40.6792 231.559 41.1867 224.314 41.1613 216.993C41.1613 215.519 38.8267 215.519 38.8521 217.019Z" fill="#4F3422"/>
<path d="M54.8118 206.059C55.6746 217.879 56.5374 229.7 57.4256 241.52C57.5271 242.995 59.8616 243.02 59.7348 241.52C58.872 229.7 58.0092 217.879 57.121 206.059C57.0195 204.585 54.7103 204.585 54.8118 206.059Z" fill="#4F3422"/>
<path d="M26.0096 250.292C28.3696 250.393 30.6534 250.902 32.8611 251.791C34.2568 252.351 34.8404 250.088 33.4701 249.554C31.0594 248.588 28.5979 248.08 26.0096 247.978C24.5124 247.902 24.5124 250.241 26.0096 250.292Z" fill="white"/>
<path d="M42.9364 253.062C45.677 253.647 48.4176 253.901 51.209 253.825C52.7062 253.774 52.7062 251.461 51.209 251.512C48.6206 251.588 46.083 251.385 43.5455 250.825C42.099 250.52 41.49 252.757 42.9364 253.062Z" fill="white"/>
<path d="M61.8929 253.344C64.9126 253.624 67.9324 253.903 70.9521 254.183C72.4493 254.31 72.4239 251.997 70.9521 251.87C67.9324 251.59 64.9126 251.31 61.8929 251.031C60.4211 250.878 60.4211 253.191 61.8929 253.344Z" fill="white"/>
<path d="M92.3684 260.565C94.7791 261.76 97.3167 262.421 100.007 262.548C101.504 262.624 101.504 260.286 100.007 260.235C97.748 260.133 95.5657 259.574 93.5356 258.582C92.2161 257.896 91.0234 259.904 92.3684 260.565Z" fill="white"/>
<path d="M88.9423 221.619C85.3389 223.221 81.9131 219.764 83.0297 216.154C83.4611 214.73 81.228 214.095 80.7966 215.544C79.0456 221.289 84.806 225.992 90.1349 223.628C91.4798 223.017 90.2872 221.035 88.9423 221.619Z" fill="#4F3422"/>
<path d="M57.3242 381.588L-24.9699 332.934L-40.3984 354.973C-12.7641 371.801 14.4135 389.316 42.2001 405.661L57.3242 381.588Z" fill="white"/>
<path d="M-40.3722 355L-128 477.85L-40.3722 534.48L42.2265 405.688C14.4398 389.343 -12.7632 371.828 -40.3722 355Z" fill="#C2B1FF"/>
<path d="M25.4281 409.656C25.4281 412.249 23.3219 414.359 20.7336 414.359C18.1453 414.359 16.0391 412.249 16.0391 409.656C16.0391 407.063 18.1453 404.953 20.7336 404.953C23.3219 404.953 25.4281 407.063 25.4281 409.656Z" fill="#4F3422"/>
<path d="M16.0375 427.297C16.0375 429.889 13.9313 431.999 11.343 431.999C8.75464 431.999 6.64844 429.889 6.64844 427.297C6.64844 424.704 8.75464 422.594 11.343 422.594C13.9313 422.594 16.0375 424.704 16.0375 427.297Z" fill="#4F3422"/>
<path d="M207.423 169.836C213.615 155.881 223.004 143.755 234.981 134.299C236.149 133.384 234.499 131.731 233.332 132.646C221.228 142.205 211.661 154.533 205.419 168.642C204.809 170.014 206.814 171.209 207.423 169.836Z" fill="white"/>
<path d="M247.213 127.029C251.35 125.174 255.664 123.928 260.13 123.242C261.602 123.013 260.967 120.776 259.521 121.005C254.826 121.716 250.36 123.089 246.046 125.046C244.676 125.631 245.843 127.639 247.213 127.029Z" fill="white"/>
<path d="M83.0823 135.366C92.7252 125.731 105.971 120.901 119.548 122.02C121.045 122.147 121.019 119.808 119.548 119.707C105.413 118.537 91.4818 123.672 81.4329 133.713C80.3925 134.781 82.0419 136.408 83.0823 135.366Z" fill="white"/>
</g>
<defs>
<clipPath id="clip0_1_428">
<rect width="375" height="653" fill="white"/>
</clipPath>
<clipPath id="clip1_1_428">
<rect width="375" height="511" fill="white" transform="translate(0 107)"/>
</clipPath>
</defs>
</svg>
