<svg width="320" height="318" viewBox="0 0 320 318" fill="none" xmlns="http://www.w3.org/2000/svg">
<g clip-path="url(#clip0_1_2)">
<path d="M309.5 150C309.5 67.1573 242.343 0 159.5 0C76.6573 0 9.5 67.1573 9.5 150C9.5 232.843 76.6573 300 159.5 300C242.343 300 309.5 232.843 309.5 150Z" fill="white"/>
<path fill-rule="evenodd" clip-rule="evenodd" d="M294.904 198.448C282.88 212.779 251.517 206.263 224.859 183.896C198.201 161.514 198.776 142.206 210.814 127.86C222.838 113.53 241.75 109.6 268.423 131.967C295.066 154.349 306.927 184.118 294.904 198.448Z" fill="#7D944D"/>
<path d="M285.786 169.816C281.286 169.816 276.964 167.911 273.91 164.498L254.923 143.268C252.297 140.328 250.852 136.546 250.852 132.602V122.334C250.852 121.226 251.751 120.34 252.843 120.34C253.95 120.34 254.835 121.241 254.835 122.334V132.602C254.835 135.557 255.912 138.393 257.889 140.594L276.875 161.824C279.531 164.779 283.455 166.241 287.379 165.709L294.755 164.719C295.847 164.587 296.85 165.34 296.998 166.433C297.145 167.526 296.378 168.531 295.286 168.679L287.91 169.669C287.217 169.757 286.494 169.816 285.786 169.816Z" fill="white"/>
<path fill-rule="evenodd" clip-rule="evenodd" d="M153.02 255.704C241.993 255.704 261.451 199.786 249.782 141.062C238.113 82.337 197.794 28 153.02 28C108.246 28 67.3963 78.6288 56.2729 141.062C45.1495 203.509 64.0475 255.704 153.02 255.704Z" fill="#9BB168"/>
<path fill-rule="evenodd" clip-rule="evenodd" d="M151.263 60.0156H173.614C196.908 60.0156 215.791 78.9257 215.791 102.253C215.791 125.58 196.908 144.491 173.614 144.491H151.263C127.969 144.491 109.086 125.58 109.086 102.253C109.086 78.911 127.969 60.0156 151.263 60.0156Z" fill="#7D944D"/>
<path fill-rule="evenodd" clip-rule="evenodd" d="M156.502 56.3359H178.852C202.146 56.3359 221.029 75.246 221.029 98.5734C221.029 121.901 202.146 140.811 178.852 140.811H156.502C133.207 140.811 114.324 121.901 114.324 98.5734C114.324 75.246 133.207 56.3359 156.502 56.3359Z" fill="white"/>
<path d="M137.706 256.131C136.6 256.131 135.715 255.23 135.715 254.136V231.932C135.715 223.127 142.87 215.947 151.677 215.947H182.525C189.119 215.947 194.489 210.569 194.489 203.966V197.908C194.489 196.8 195.389 195.914 196.481 195.914C197.587 195.914 198.472 196.815 198.472 197.908V203.966C198.472 212.771 191.317 219.951 182.51 219.951H151.677C145.083 219.951 139.713 225.328 139.713 231.932V254.122C139.713 255.23 138.813 256.131 137.706 256.131Z" fill="#7D944D"/>
<path d="M196.48 155.659C195.373 155.659 194.488 154.758 194.488 153.665V152.276C194.488 146.765 198.958 142.289 204.461 142.289H248.778C249.884 142.289 250.769 143.19 250.769 144.283C250.769 145.392 249.869 146.278 248.778 146.278H204.461C201.156 146.278 198.471 148.967 198.471 152.276V153.665C198.471 154.773 197.586 155.659 196.48 155.659Z" fill="#7D944D"/>
<path fill-rule="evenodd" clip-rule="evenodd" d="M176.939 154.979L203.257 154.52C214.98 154.314 224.65 163.656 224.865 175.39C224.865 175.39 224.865 175.39 224.862 175.405C225.062 187.136 215.733 196.822 204.009 197.028L177.692 197.487C165.968 197.693 156.298 188.351 156.084 176.617C156.084 176.617 156.084 176.617 156.086 176.602C155.889 164.856 165.218 155.17 176.939 154.979Z" fill="#926247"/>
<path fill-rule="evenodd" clip-rule="evenodd" d="M183.211 154.496L209.016 154.051C220.875 153.839 230.673 163.309 230.879 175.176L230.876 175.191C231.08 187.073 221.626 196.872 209.754 197.067L183.949 197.511C172.09 197.723 162.304 188.27 162.083 176.4L162.086 176.386C161.882 164.504 171.337 154.705 183.211 154.496Z" fill="white"/>
<path d="M183.834 186.583C178.47 186.58 174.045 182.258 173.946 176.856C173.842 171.394 178.204 166.872 183.661 166.772H183.826C183.887 166.767 183.945 166.778 184.005 166.773C189.369 166.777 193.794 171.099 193.894 176.5C193.998 181.962 189.636 186.485 184.179 186.584L184.014 186.585C183.956 186.575 183.895 186.579 183.834 186.583ZM183.739 170.76C180.478 170.813 177.875 173.517 177.933 176.767C177.988 180.031 180.68 182.621 183.941 182.568L184.106 182.567C187.353 182.512 189.956 179.808 189.898 176.558C189.842 173.294 187.127 170.67 183.89 170.757L183.739 170.76Z" fill="#926247"/>
<path d="M200.303 173.346C199.241 173.338 198.353 172.506 198.317 171.435C198.271 170.333 199.123 169.404 200.225 169.359L215.366 168.708C216.468 168.663 217.397 169.517 217.443 170.619C217.488 171.722 216.636 172.651 215.534 172.696L200.393 173.347C200.364 173.341 200.335 173.336 200.303 173.346Z" fill="#926247"/>
<path d="M200.879 181.476C199.817 181.468 198.929 180.636 198.893 179.565C198.847 178.463 199.7 177.534 200.801 177.489L209.542 177.115C210.643 177.07 211.572 177.924 211.618 179.027C211.664 180.129 210.811 181.058 209.71 181.103L200.969 181.476C200.937 181.486 200.908 181.481 200.879 181.476Z" fill="#926247"/>
<path fill-rule="evenodd" clip-rule="evenodd" d="M166.097 82.0352C168.693 82.0352 170.803 84.1478 170.803 86.7479V88.3434C170.803 90.9436 168.693 93.0562 166.097 93.0562C163.5 93.0562 161.391 90.9436 161.391 88.3434V86.7479C161.391 84.1478 163.5 82.0352 166.097 82.0352Z" fill="#926247"/>
<path fill-rule="evenodd" clip-rule="evenodd" d="M199.468 82.0352C202.064 82.0352 204.174 84.1478 204.174 86.7479V88.3434C204.174 90.9436 202.064 93.0562 199.468 93.0562C196.871 93.0562 194.762 90.9436 194.762 88.3434V86.7479C194.762 84.1478 196.871 82.0352 199.468 82.0352Z" fill="#926247"/>
<path d="M178.948 113.992C173.578 113.992 169.211 109.619 169.211 104.241C169.211 103.133 170.111 102.247 171.203 102.247C172.309 102.247 173.194 103.148 173.194 104.241C173.194 107.418 175.776 110.003 178.948 110.003L187.873 109.929C191.059 109.9 193.626 107.373 193.715 104.182C193.744 103.074 194.674 102.217 195.766 102.247C196.872 102.276 197.728 103.192 197.698 104.3C197.551 109.648 193.243 113.874 187.902 113.933L178.948 113.992Z" fill="#4F3422"/>
<path fill-rule="evenodd" clip-rule="evenodd" d="M44.0359 217.736C60.2194 227.087 87.4084 210.245 104.787 180.108C122.165 149.97 115.025 132.035 98.8416 122.668C82.6581 113.331 63.5683 116.109 46.1898 146.247C28.8113 176.385 27.8523 208.384 44.0359 217.736Z" fill="#7D944D"/>
<path d="M82.5557 208.428C81.759 208.428 80.9919 207.941 80.6969 207.143L74.9581 192.222C73.7927 189.193 74.0582 185.854 75.6957 183.047L87.6305 162.468C89.5336 159.203 93.0595 157.164 96.8361 157.164H112.577C113.684 157.164 114.569 158.065 114.569 159.158C114.569 160.252 113.669 161.153 112.577 161.153H96.8214C94.461 161.153 92.2628 162.423 91.0679 164.462L79.1331 185.042C78.1152 186.8 77.9529 188.883 78.6758 190.774L84.4145 205.725C84.8128 206.759 84.2965 207.911 83.2638 208.31C83.0278 208.384 82.7917 208.428 82.5557 208.428Z" fill="white"/>
<path d="M233.246 317.931C250.323 317.931 264.167 304.067 264.167 286.965C264.167 269.864 250.323 256 233.246 256C216.168 256 202.324 269.864 202.324 286.965C202.324 304.067 216.168 317.931 233.246 317.931Z" fill="#ED7E1C"/>
<path fill-rule="evenodd" clip-rule="evenodd" d="M219.138 270H247.255C248.809 270 250.069 271.257 250.069 272.809V276.08C250.069 277.632 248.809 278.889 247.255 278.889H219.138C217.584 278.889 216.324 277.632 216.324 276.08V272.809C216.324 271.257 217.584 270 219.138 270Z" fill="#4F3422"/>
<path fill-rule="evenodd" clip-rule="evenodd" d="M220.371 278.891H246.367V301.812C246.367 303.364 245.108 304.621 243.553 304.621H223.185C221.63 304.621 220.371 303.364 220.371 301.812V278.891Z" fill="white"/>
<path fill-rule="evenodd" clip-rule="evenodd" d="M225.229 283.098H242.564C243.335 283.098 243.964 283.726 243.964 284.496V293.385C243.964 294.154 243.335 294.783 242.564 294.783H225.229C224.458 294.783 223.828 294.154 223.828 293.385V284.496C223.828 283.726 224.458 283.098 225.229 283.098Z" fill="white"/>
<path d="M240.651 289.96H229.201C228.43 289.96 227.801 289.332 227.801 288.562C227.801 287.793 228.43 287.164 229.201 287.164H240.651C241.422 287.164 242.052 287.793 242.052 288.562C242.064 289.332 241.435 289.96 240.651 289.96Z" fill="#4F3422"/>
<path d="M66.0941 74.6848C78.1695 62.5922 78.1695 42.9862 66.0941 30.8937C54.0187 18.8011 34.4406 18.8011 22.3652 30.8937C10.2897 42.9862 10.2897 62.5922 22.3652 74.6848C34.4406 86.7773 54.0187 86.7773 66.0941 74.6848Z" fill="#ED7E1C"/>
<path d="M47.4906 58.5703H42.0469V68.7049H47.4906V58.5703Z" fill="#4F3422"/>
<path fill-rule="evenodd" clip-rule="evenodd" d="M28.4877 34.9609H61.0613C62.1678 34.9609 63.0529 35.8621 63.0529 36.9554V57.8894C63.0529 58.9975 62.153 59.8839 61.0613 59.8839H28.4877C27.3812 59.8839 26.4961 58.9827 26.4961 57.8894V36.9554C26.4961 35.8621 27.3812 34.9609 28.4877 34.9609Z" fill="white"/>
<path d="M54.7016 70.9029H35.4642C34.3578 70.9029 33.4727 70.0017 33.4727 68.9085C33.4727 67.8152 34.3726 66.9141 35.4642 66.9141H54.7016C55.808 66.9141 56.6932 67.8152 56.6932 68.9085C56.6932 70.0017 55.808 70.9029 54.7016 70.9029Z" fill="#4F3422"/>
<path d="M34.6823 54.3596C34.166 54.3596 33.6644 54.1676 33.2661 53.7687C32.4842 52.9857 32.4842 51.7299 33.2661 50.9469L40.6719 43.5306C41.4538 42.7476 42.7077 42.7476 43.4896 43.5306L47.1187 47.1649L53.2853 40.9896C54.0672 40.2066 55.3212 40.2066 56.103 40.9896C56.8849 41.7726 56.8849 43.0283 56.103 43.8113L48.5202 51.4049C47.7383 52.1879 46.4844 52.1879 45.7025 51.4049L42.0881 47.7854L36.0986 53.7834C35.715 54.1676 35.1987 54.3596 34.6823 54.3596Z" fill="#4F3422"/>
<path d="M310.094 102.685C322.17 90.5922 322.17 70.9862 310.094 58.8937C298.019 46.8011 278.441 46.8011 266.365 58.8937C254.29 70.9862 254.29 90.5922 266.365 102.685C278.441 114.777 298.019 114.777 310.094 102.685Z" fill="#ED7E1C"/>
<path fill-rule="evenodd" clip-rule="evenodd" d="M279.843 90.9714C275.742 86.9382 274.149 82.1812 275.034 76.7297C276.362 68.5452 284.977 64.9848 291.483 67.0383C297.989 69.0918 300.718 72.8295 301.5 78.4878C302.016 82.2698 300.408 86.4212 296.646 90.9714L295.274 93.2613V97.6195C295.274 101.475 292.162 104.593 288.311 104.593C284.461 104.593 281.348 101.475 281.348 97.6195V93.7636L279.843 90.9714Z" fill="white"/>
<path fill-rule="evenodd" clip-rule="evenodd" d="M286.35 82.4461H283.355C282.986 82.4461 282.691 82.1506 282.691 81.7813C282.691 81.6483 282.736 81.5153 282.809 81.4119L288.076 73.7002C288.283 73.3899 288.696 73.316 289.005 73.5229C289.183 73.6411 289.301 73.8479 289.301 74.0695V77.6594C289.301 78.0288 289.596 78.3243 289.964 78.3243H292.472C292.841 78.3243 293.136 78.6197 293.136 78.9891C293.136 79.122 293.107 79.2402 293.033 79.3436L288.253 86.9225C288.061 87.2327 287.648 87.3213 287.338 87.1293C287.147 87.0111 287.029 86.7895 287.029 86.5679V83.1256C287.014 82.7563 286.719 82.4461 286.35 82.4461Z" fill="#4F3422"/>
<path fill-rule="evenodd" clip-rule="evenodd" d="M304.628 76.6857L307.608 76.1686C308.42 76.0209 309.202 76.5675 309.334 77.3801C309.482 78.1926 308.936 78.9608 308.125 79.1086L305.145 79.6257C304.333 79.7734 303.551 79.2268 303.419 78.4142C303.271 77.6017 303.817 76.8335 304.628 76.6857Z" fill="#4F3422"/>
<path fill-rule="evenodd" clip-rule="evenodd" d="M299.759 66.0031L301.529 63.595C302.016 62.9302 302.96 62.7677 303.639 63.2552C304.303 63.7427 304.45 64.6735 303.978 65.3383C303.978 65.3383 303.978 65.3383 303.978 65.3531L302.208 67.7611C301.721 68.426 300.777 68.5885 300.098 68.1009C299.434 67.6134 299.272 66.6827 299.759 66.0031C299.759 66.0179 299.759 66.0179 299.759 66.0031Z" fill="#4F3422"/>
<path fill-rule="evenodd" clip-rule="evenodd" d="M286.969 62.2213V59.828C286.969 58.8234 287.78 57.9961 288.798 57.9961C289.816 57.9961 290.627 58.8086 290.627 59.828V62.2213C290.627 63.2259 289.816 64.0532 288.798 64.0532C287.78 64.0532 286.969 63.2259 286.969 62.2213Z" fill="#4F3422"/>
<path fill-rule="evenodd" clip-rule="evenodd" d="M273.78 67.3043L271.655 65.1917C271.065 64.6155 271.065 63.67 271.641 63.0791C271.641 63.0791 271.641 63.0791 271.655 63.0643C272.245 62.4734 273.19 62.4734 273.78 63.0643L275.904 65.1769C276.494 65.7531 276.494 66.6986 275.919 67.2895C275.919 67.2895 275.919 67.2895 275.904 67.3043C275.314 67.8805 274.37 67.8805 273.78 67.3043Z" fill="#4F3422"/>
<path fill-rule="evenodd" clip-rule="evenodd" d="M270.888 78.2649L267.863 77.999C267.037 77.9251 266.432 77.2012 266.506 76.3887C266.58 75.5614 267.303 74.9557 268.129 75.0295L271.153 75.2954C271.979 75.3693 272.584 76.0932 272.51 76.9058C272.437 77.7331 271.714 78.3388 270.888 78.2649Z" fill="#4F3422"/>
<path d="M293.667 95.3448C293.652 95.3448 293.652 95.3448 293.667 95.3448L283 95.2857C281.894 95.2857 281.009 94.3845 281.024 93.2765C281.024 92.1833 281.924 91.2969 283.015 91.2969C283.015 91.2969 283.015 91.2969 283.03 91.2969L293.681 91.356C294.788 91.356 295.673 92.2572 295.658 93.3652C295.643 94.4584 294.758 95.3448 293.667 95.3448Z" fill="#4F3422"/>
<path d="M291.231 102.54H285.374C284.268 102.54 283.383 101.638 283.383 100.545C283.383 99.452 284.283 98.5508 285.374 98.5508H291.231C292.338 98.5508 293.223 99.452 293.223 100.545C293.223 101.638 292.323 102.54 291.231 102.54Z" fill="#4F3422"/>
<path d="M244.535 24.7811C241.622 26.4629 237.835 26.1587 235.218 23.7801C235.036 23.6122 234.828 23.4592 234.623 23.3391C233.758 22.8148 232.737 22.6704 231.754 22.9141C230.77 23.1579 229.948 23.7692 229.425 24.634L229.251 24.9222C229.118 25.1352 228.986 25.3482 228.833 25.5558C227.461 27.457 225.433 28.6957 223.116 29.0783C220.804 29.4408 218.477 28.891 216.588 27.5079L215.64 26.81C215.467 26.6879 215.289 26.586 215.111 26.4841C214.169 26.0041 213.1 25.9221 212.102 26.2594C211.097 26.5838 210.293 27.2866 209.815 28.2282C209.614 28.6173 209.385 28.9882 209.141 29.3335C207.896 31.0419 206.066 32.1498 203.983 32.4655C201.899 32.7813 199.819 32.2764 198.11 31.0281L195.046 28.7886C194.16 28.1399 193.965 26.8877 194.612 26.0023C195.26 25.1169 196.511 24.9234 197.396 25.5721L200.461 27.8116C201.299 28.4367 202.332 28.6929 203.36 28.5259C204.396 28.3717 205.301 27.815 205.924 26.9773C206.046 26.8047 206.16 26.6192 206.255 26.4284C207.204 24.5325 208.845 23.1248 210.855 22.476C212.87 21.807 215.017 21.9837 216.912 22.9363C217.274 23.1199 217.645 23.3493 217.99 23.5935L218.951 24.284C219.982 25.0366 221.243 25.3322 222.507 25.1313C223.77 24.9304 224.873 24.2429 225.623 23.2124C225.696 23.1022 225.781 22.9847 225.854 22.8745L226.028 22.5862C227.097 20.8089 228.786 19.544 230.812 19.0398C232.825 18.543 234.926 18.8482 236.703 19.9203C237.142 20.1787 237.557 20.4848 237.929 20.8333C239.545 22.3053 242.05 22.1895 243.519 20.5737C243.661 20.4064 243.803 20.2392 243.93 20.0464L245.821 17.0954C246.413 16.1736 247.653 15.9014 248.575 16.495C249.497 17.0886 249.783 18.3222 249.178 19.2514L247.288 22.2023C247.046 22.5806 246.777 22.9407 246.473 23.2697C245.868 23.8747 245.225 24.3828 244.535 24.7811Z" fill="#FFCE5C"/>
<path d="M10.1334 132.294C4.8225 132.294 0.5 127.966 0.5 122.647C0.5 117.329 4.8225 113 10.1334 113C15.4443 113 19.7668 117.329 19.7668 122.647C19.7816 127.951 15.4443 132.294 10.1334 132.294ZM10.1334 116.974C7.02063 116.974 4.48319 119.515 4.48319 122.632C4.48319 125.75 7.02063 128.291 10.1334 128.291C13.2462 128.291 15.7836 125.75 15.7836 122.632C15.7836 119.515 13.2462 116.974 10.1334 116.974Z" fill="#C2B1FF"/>
<path d="M31.6736 285.965C31.0983 285.965 30.5377 285.728 30.1394 285.256C29.4313 284.413 29.5345 283.143 30.3902 282.449L61.5918 256.226C63.1261 254.94 64.0555 253.138 64.2325 251.144C64.4095 249.149 63.7899 247.214 62.5065 245.677C61.223 244.141 59.4232 243.21 57.4316 243.033C55.44 242.856 53.5074 243.476 51.9731 244.761L20.7715 270.984C19.9306 271.694 18.6766 271.59 17.9685 270.733C17.2604 269.891 17.3637 268.621 18.2193 267.926L49.421 241.688C51.7666 239.724 54.7319 238.778 57.7856 239.044C60.8394 239.31 63.5982 240.758 65.5602 243.092C67.5223 245.441 68.4665 248.41 68.2009 251.469C67.9354 254.527 66.4897 257.289 64.144 259.254L32.9424 285.492C32.5735 285.817 32.1162 285.965 31.6736 285.965Z" fill="#7D944D"/>
<path d="M156.464 311.642C149.87 311.642 144.5 306.117 144.5 299.321C144.5 292.525 149.87 287 156.464 287C157.571 287 158.456 287.901 158.456 288.994C158.456 290.102 157.556 290.989 156.464 290.989C152.068 290.989 148.483 294.727 148.483 299.306C148.483 303.901 152.068 307.624 156.464 307.624C157.571 307.624 158.456 308.525 158.456 309.618C158.456 310.711 157.571 311.642 156.464 311.642Z" fill="#FFCE5C"/>
</g>
<defs>
<clipPath id="clip0_1_2">
<rect width="320" height="318" fill="white"/>
</clipPath>
</defs>
</svg>
