<svg width="375" height="477" viewBox="0 0 375 477" fill="none" xmlns="http://www.w3.org/2000/svg">
<g clip-path="url(#clip0_1_402)">
<path opacity="0.48" d="M135.806 392.935C73.8496 389.523 12.3987 378.433 -46.6303 360.067C-63.0243 354.949 -79.4715 349.164 -93.3638 339.354C-107.256 329.544 -118.487 315.096 -120.669 298.542C-121.601 291.398 -120.696 283.668 -116.252 277.857C-107.496 266.367 -89.7976 266.981 -75.3464 269.62C-39.8971 276.071 -5.45905 287.746 26.3709 304.14C-24.6208 282.442 -74.202 246.961 -89.5581 195.06C-91.5275 188.422 -92.8848 181.438 -91.9533 174.587C-89.3718 155.874 -69.518 142.759 -50.0635 141.533C-30.6355 140.307 -11.8995 148.33 4.97347 157.714C34.0356 173.894 60.3565 194.713 82.499 219.078C33.4501 194.9 4.46782 143.425 -8.22688 91.4976C-9.77047 85.2332 -11.1011 78.6222 -9.47772 72.3578C-6.04456 59.2426 9.79054 52.0719 23.6297 53.5647C37.4688 55.0575 49.5779 63.0279 60.596 71.2383C99.9309 100.534 134.875 137.534 151.854 182.771C115.952 145.265 104.695 87.2591 124.043 39.4365C129.312 26.4012 137.11 13.6858 149.246 6.08857C161.408 -1.50868 178.627 -2.62827 189.645 6.35513C198.322 13.4459 201.489 24.9084 203.804 35.7045C214.157 84.3002 216.073 134.629 209.473 183.917C208.541 141.319 223.658 98.4817 251.336 65.2404C265.627 48.0733 283.246 33.5453 302.86 22.376C331.603 6.03525 364.87 35.2247 350.685 64.4407C350.578 64.654 350.498 64.8406 350.392 65.0538C329.394 107.945 298.069 146.064 259.639 175.494C283.246 139.107 316.885 108.878 356.087 88.8319C371.204 81.1013 389.328 74.8103 404.95 81.4212C425.229 90.0048 430.632 117.248 422.062 137.108C413.493 156.967 395.183 171.069 377.618 184.237C348.422 206.149 319.254 228.061 290.059 249.973C332.933 217.345 378.336 183.571 432.096 175.201C442.794 173.521 454.957 173.308 463.074 180.212C472.708 188.422 472.309 203.857 465.709 214.6C459.109 225.342 447.878 232.486 437.019 239.257C401.277 261.569 365.535 283.881 329.819 306.193C369.5 280.496 415.143 253.572 461.663 263.355C476.461 266.474 491.79 275.004 495.276 289.292C499.322 305.9 485.722 321.707 471.484 331.837C439.042 354.949 399.175 365.398 360.319 375.395C287.69 394.081 210.511 412.741 138.76 391.682L135.806 392.935Z" fill="#FFEEE2"/>
</g>
<g clip-path="url(#clip1_1_402)">
<g clip-path="url(#clip2_1_402)">
<path d="M268 130C268 107.909 250.091 90 228 90C205.909 90 188 107.909 188 130C188 152.091 205.909 170 228 170C250.091 170 268 152.091 268 130Z" fill="white"/>
<g filter="url(#filter0_ddddd_1_402)">
<path d="M260 130C260 112.327 245.673 98 228 98C210.327 98 196 112.327 196 130C196 147.673 210.327 162 228 162C245.673 162 260 147.673 260 130Z" fill="#C2B1FF"/>
<path fill-rule="evenodd" clip-rule="evenodd" d="M236.781 114.781C237.822 113.74 239.511 113.74 240.552 114.781L248.552 122.781C249.594 123.822 249.594 125.511 248.552 126.552C247.511 127.594 245.822 127.594 244.781 126.552L236.781 118.552C235.74 117.511 235.74 115.822 236.781 114.781Z" fill="#3C357C"/>
<path fill-rule="evenodd" clip-rule="evenodd" d="M248.551 114.781C249.592 115.822 249.592 117.511 248.551 118.552L240.551 126.552C239.51 127.594 237.821 127.594 236.78 126.552C235.738 125.511 235.738 123.822 236.78 122.781L244.78 114.781C245.821 113.74 247.51 113.74 248.551 114.781Z" fill="#3C357C"/>
<path fill-rule="evenodd" clip-rule="evenodd" d="M207.449 114.781C208.49 113.74 210.179 113.74 211.22 114.781L219.22 122.781C220.262 123.822 220.262 125.511 219.22 126.552C218.179 127.594 216.49 127.594 215.449 126.552L207.449 118.552C206.408 117.511 206.408 115.822 207.449 114.781Z" fill="#3C357C"/>
<path fill-rule="evenodd" clip-rule="evenodd" d="M219.219 114.781C220.26 115.822 220.26 117.511 219.219 118.552L211.219 126.552C210.178 127.594 208.489 127.594 207.448 126.552C206.406 125.511 206.406 123.822 207.448 122.781L215.448 114.781C216.489 113.74 218.178 113.74 219.219 114.781Z" fill="#3C357C"/>
<path fill-rule="evenodd" clip-rule="evenodd" d="M218.263 135.974C221.057 133.83 224.481 132.668 228.003 132.668C231.525 132.668 234.949 133.83 237.744 135.974C240.538 138.118 242.547 141.125 243.458 144.527C243.839 145.949 242.995 147.412 241.573 147.793C240.15 148.174 238.688 147.33 238.307 145.907C237.699 143.639 236.36 141.635 234.497 140.205C232.634 138.776 230.351 138.001 228.003 138.001C225.655 138.001 223.373 138.776 221.51 140.205C219.647 141.635 218.308 143.639 217.7 145.907C217.319 147.33 215.857 148.174 214.434 147.793C213.012 147.412 212.167 145.949 212.549 144.527C213.46 141.125 215.469 138.118 218.263 135.974Z" fill="#3C357C"/>
</g>
</g>
<path d="M120.196 261.934C113.541 260.432 107.865 259.272 106.612 259.181C92.9585 258.134 79.0775 259.59 66.0399 263.914C-5.5531 287.762 1.35319 382.402 14.1857 441.134C14.6643 443.296 18.3796 462.661 20.0207 462.73C20.0207 462.73 50.1987 464.049 91.7733 465.87C92.571 396.92 96.1723 327.766 120.196 261.934Z" fill="#ED7E1C"/>
<path d="M234.253 294.382C227.62 300.754 220.349 306.534 212.44 311.244C197.009 320.438 175.72 325.103 158.284 323.146C132.527 320.278 134.1 287.214 145.246 268.851C145.77 268.009 131.57 264.459 120.174 261.91C96.1725 327.765 92.5712 396.919 91.7734 465.869C124.96 467.325 165.395 469.077 203.573 470.761C218.252 410.436 232.68 350.134 239.814 288.261C237.17 291.242 234.982 293.7 234.253 294.382Z" fill="white"/>
<path d="M367.525 345.195C367.57 329.517 364.881 312.746 359.046 298.159C342.019 255.606 285.037 237.971 252.123 274.061C251.576 274.676 244.898 282.435 239.815 288.238C232.681 350.133 218.253 410.436 203.574 470.738C271.315 473.696 331.876 476.336 331.899 476.336C332.264 476.336 340.241 454.126 341.244 451.828C345.643 441.702 349.564 431.371 352.983 420.858C359.365 401.22 364.607 380.444 366.75 359.873C367.228 355.117 367.502 350.201 367.525 345.195Z" fill="#ED7E1C"/>
<path d="M116.708 182.265C117.665 184.86 118.622 187.431 119.602 190.025C120.058 191.277 122.087 190.731 121.608 189.479C120.651 186.885 119.693 184.313 118.713 181.719C118.257 180.468 116.252 180.991 116.708 182.265Z" fill="#4F3422"/>
<path d="M137.383 305.214C139.708 320.551 154.637 324.693 168.267 324.261C185.499 323.692 202.206 318.117 216.543 308.673C223.404 304.145 229.74 298.843 235.575 293.085C237.49 291.197 250.915 273.811 252.1 274.062C233.364 270.216 213.831 269.42 195.254 269.169C177.111 268.942 160.654 268.441 145.246 268.873C138.682 279.751 135.4 292.061 137.383 305.214Z" fill="#F6A460"/>
<path d="M258.867 377.029C255.585 402.492 249.021 427.41 239.334 451.212C238.832 452.464 240.838 452.987 241.339 451.758C251.095 427.797 257.637 402.697 260.942 377.029C261.124 375.709 259.027 375.709 258.867 377.029Z" fill="#4F3422"/>
<path d="M130.475 285.097C125.848 298.136 125.802 312.29 130.361 325.374C130.794 326.626 132.822 326.102 132.366 324.828C127.922 312.062 127.967 298.409 132.48 285.666C132.913 284.369 130.908 283.845 130.475 285.097Z" fill="#4F3422"/>
<path d="M142.534 334.636C155.617 339.778 171.185 337.912 184.496 334.749C198.924 331.313 213.716 325.442 224.885 315.475C225.888 314.588 224.406 313.109 223.403 313.996C212.508 323.736 197.989 329.402 183.926 332.747C170.957 335.819 155.822 337.662 143.081 332.633C141.85 332.133 141.303 334.135 142.534 334.636Z" fill="#4F3422"/>
<path d="M102.965 203.382C102.554 199.149 99.4089 195.645 95.762 193.779C92.1152 191.89 87.9896 191.367 83.9552 190.866C74.7696 189.706 65.6068 188.545 56.4212 187.408C50.3583 186.634 43.999 185.746 39.1441 181.878C34.2892 178.009 31.8275 170.113 35.634 165.13C40.6712 158.553 52.2729 161.398 56.9911 154.571C60.5696 149.406 57.6065 141.828 52.8883 137.777C48.1701 133.727 42.1072 131.861 36.9332 128.471C29.3431 123.487 23.8727 115.067 22.2544 105.851C21.9581 104.213 21.7986 102.484 22.3 100.891C23.4625 97.2498 27.8615 95.7251 31.44 96.5216C35.0413 97.318 38.05 99.7529 41.0587 101.96C46.0504 105.601 52.2501 108.832 58.0395 106.853C63.6694 104.941 66.8605 98.7744 68.5699 92.8807C70.2794 86.9642 71.1227 80.5926 74.4733 75.5181C78.0974 69.9885 84.5934 66.6434 90.9983 67.0303C97.4031 67.3944 103.512 71.4676 106.566 77.3841C109.256 82.6407 109.529 88.8074 110.714 94.6556C111.877 100.481 114.521 106.671 119.763 108.992C123.615 110.698 128.014 109.947 132.208 109.879C136.402 109.811 141.189 110.858 143.263 114.681C144.471 116.933 144.448 119.664 144.288 122.235C143.514 134.114 140.459 145.697 139.32 157.552C138.157 169.385 139.16 182.106 145.656 191.89L102.965 203.382Z" fill="#4F3422"/>
<path d="M222.102 269.67L133.231 175.712C120.695 179.603 107.293 175.553 98.2214 166.496C90.107 189.57 81.8103 229.006 104.33 259.339L126.394 237.676C126.394 237.676 135.055 264.823 143.602 291.493C151.603 316.456 182.237 325.603 202.659 309.151C202.933 308.924 203.206 308.719 203.457 308.491C220.369 294.792 237.054 285.485 222.102 269.67Z" fill="#F6A460"/>
<path d="M133.233 175.712L106.383 147.336C106.383 147.336 102.325 154.822 98.2227 166.496C107.317 175.576 120.697 179.603 133.233 175.712Z" fill="#F6A460"/>
<path d="M166.075 181.97C164.434 190.617 156.115 196.306 147.453 194.668C138.792 193.029 133.094 184.724 134.735 176.076C136.376 167.429 144.695 161.74 153.357 163.379C162.018 164.994 167.716 173.323 166.075 181.97Z" fill="#F6A460"/>
<path d="M147.343 185.84C150.237 180.766 153.155 175.714 156.141 170.685C156.824 169.524 155.024 168.478 154.34 169.638C151.354 174.644 148.437 179.719 145.542 184.793C144.881 185.977 146.682 187.023 147.343 185.84Z" fill="#4F3422"/>
<path d="M126.395 237.676L144.219 292.54L141.529 220.609L126.395 237.676Z" fill="#4F3422"/>
<path d="M93.1848 183.515C89.5151 193.027 86.3697 203.313 84.6602 213.348C84.5006 214.281 85.344 214.895 86.1873 214.531C89.9026 212.87 93.6407 211.209 97.3559 209.548C98.5868 209.002 97.5155 207.204 96.3075 207.75C92.5922 209.411 88.8541 211.073 85.1389 212.734C85.6403 213.121 86.1645 213.507 86.666 213.917C88.3755 203.859 91.5209 193.573 95.1906 184.084C95.692 182.833 93.6635 182.287 93.1848 183.515Z" fill="#4F3422"/>
<path d="M114.953 181.15C116.115 184.449 117.301 187.749 118.463 191.048C118.919 192.3 120.925 191.754 120.469 190.502C119.307 187.203 118.121 183.903 116.959 180.603C116.526 179.352 114.497 179.898 114.953 181.15Z" fill="#4F3422"/>
<path d="M117.21 193.187C119.261 192.027 121.313 190.844 123.387 189.683C124.549 189.023 123.501 187.225 122.338 187.885C120.287 189.046 118.236 190.229 116.161 191.39C114.976 192.05 116.025 193.847 117.21 193.187Z" fill="#4F3422"/>
<path d="M107.727 171.911C112.24 176.758 118.349 179.352 124.982 179.238C126.326 179.216 126.326 177.122 124.982 177.168C118.873 177.281 113.38 174.938 109.209 170.455C108.274 169.453 106.793 170.933 107.727 171.911Z" fill="#4F3422"/>
<path d="M100.16 233.809C100.16 233.809 101.026 222.249 104.354 217.47C110.007 209.346 112.263 208.846 117.301 205.91C119.398 204.682 122.315 204.204 124.754 204.272C127.17 204.317 129.746 206.161 129.677 208.573C129.632 210.939 127.329 212.555 125.255 213.693C116.093 218.79 105.722 223.455 100.867 232.762L100.16 233.809Z" fill="#4F3422"/>
<path d="M131.339 203.566C132.729 206.592 132.683 209.983 131.27 213.009C130.7 214.215 132.501 215.262 133.071 214.056C134.849 210.301 134.849 206.296 133.139 202.519C132.569 201.313 130.792 202.36 131.339 203.566Z" fill="#4F3422"/>
<path d="M44.3867 354.64C42.1985 383.858 43.908 414.032 49.4923 442.818C49.743 444.138 51.7488 443.569 51.4981 442.272C45.9366 413.691 44.2955 383.676 46.4608 354.64C46.5748 353.297 44.4778 353.297 44.3867 354.64Z" fill="#4F3422"/>
<path d="M160.245 219.105C159.857 219.196 163.344 226.433 165.783 231.735C166.467 233.191 167.105 234.739 168.359 235.763C169.59 236.787 171.55 237.219 173.191 236.309C175.311 235.148 175.926 232.281 175.083 230.37C174.217 228.458 172.348 227.275 170.547 226.182C167.174 224.112 160.245 219.105 160.245 219.105Z" fill="#C2B1FF"/>
<path d="M221.534 227.367C221.146 227.458 224.633 234.694 227.072 239.997C227.756 241.453 228.394 243 229.648 244.024C230.879 245.048 232.839 245.481 234.48 244.57C236.6 243.41 237.215 240.543 236.372 238.631C235.506 236.72 233.637 235.536 231.836 234.444C228.485 232.373 221.534 227.367 221.534 227.367Z" fill="#C2B1FF"/>
<path d="M63.9669 221.065C63.7162 220.769 58.7017 227.027 54.9864 231.51C53.9607 232.761 52.8667 234.013 52.4564 235.56C52.0689 237.13 52.5476 239.064 54.0519 240.157C56.0349 241.568 58.884 240.862 60.2288 239.269C61.5736 237.676 61.8471 235.469 62.0523 233.376C62.4626 229.462 63.9669 221.065 63.9669 221.065Z" fill="#C2B1FF"/>
<path d="M125.827 187.34C125.44 187.317 126.671 195.259 127.469 201.016C127.697 202.609 127.879 204.27 128.768 205.613C129.657 206.955 131.412 207.911 133.235 207.524C135.606 207.024 137.019 204.452 136.768 202.381C136.495 200.311 135.059 198.627 133.645 197.057C131.024 194.144 125.827 187.34 125.827 187.34Z" fill="#C2B1FF"/>
<path d="M139.73 164.425C136.516 153.73 140.482 144.059 148.118 136.481C153.907 130.724 161.679 125.74 165.509 118.299C168.837 111.86 165.121 105.533 158.899 102.735C155.047 101.005 150.739 100.846 146.613 100.504C143.308 100.231 139.092 100.687 140.117 95.9761C140.687 93.3592 142.032 90.401 145.086 90.1279C146.408 90.0142 146.431 87.9206 145.086 88.0572C141.895 88.3302 139.912 90.401 138.772 93.291C137.792 95.7486 136.676 99.9584 139.616 101.506C141.257 102.37 143.582 102.348 145.382 102.507C148.642 102.803 151.947 102.871 155.115 103.667C160.859 105.101 166.671 109.88 164.118 116.365C162.249 121.076 157.736 124.921 154.067 128.244C150.443 131.52 146.636 134.683 143.491 138.461C137.2 145.993 134.898 155.528 137.747 164.994C138.089 166.245 140.117 165.699 139.73 164.425Z" fill="#4F3422"/>
<path d="M46.0485 166.812C49.4903 166.516 51.8152 164.491 53.9577 161.92C56.3966 159.03 59.0178 155.684 59.4509 151.816C60.2258 144.716 53.1144 140.324 46.8235 140.051C39.9172 139.778 29.592 142.281 25.1929 148.13C23.5518 150.314 22.321 153.705 24.0304 156.231C25.3752 158.233 28.042 158.802 29.9794 157.346C31.0279 156.549 30.0022 154.729 28.931 155.548C25.398 158.21 25.4892 151.543 26.3781 150.087C27.1303 148.881 28.2016 147.834 29.3412 147.015C30.8912 145.9 32.6918 145.126 34.4925 144.489C39.3018 142.759 45.2052 141.166 50.2425 142.668C55.4393 144.193 58.8582 149.017 56.6017 154.319C54.9378 158.256 50.6983 164.354 46.0485 164.741C44.7266 164.855 44.7266 166.926 46.0485 166.812Z" fill="#4F3422"/>
<path d="M363.838 263.398C363.838 230.593 337.272 204 304.5 204C271.728 204 245.161 230.593 245.161 263.398C245.161 296.202 271.728 322.795 304.5 322.795C337.272 322.795 363.838 296.202 363.838 263.398Z" fill="white"/>
<g filter="url(#filter1_ddddd_1_402)">
<path d="M353.608 263.398C353.608 236.249 331.621 214.241 304.5 214.241C277.379 214.241 255.392 236.249 255.392 263.398C255.392 290.546 277.379 312.554 304.5 312.554C331.621 312.554 353.608 290.546 353.608 263.398Z" fill="#C0A091"/>
<path fill-rule="evenodd" clip-rule="evenodd" d="M329.054 242.916C331.314 242.916 333.146 244.75 333.146 247.012V259.301C333.146 261.564 331.314 263.398 329.054 263.398C326.794 263.398 324.962 261.564 324.962 259.301V247.012C324.962 244.75 326.794 242.916 329.054 242.916Z" fill="#4F3422"/>
<path fill-rule="evenodd" clip-rule="evenodd" d="M279.946 242.916C282.206 242.916 284.038 244.75 284.038 247.012V259.301C284.038 261.564 282.206 263.398 279.946 263.398C277.686 263.398 275.854 261.564 275.854 259.301V247.012C275.854 244.75 277.686 242.916 279.946 242.916Z" fill="#4F3422"/>
<path fill-rule="evenodd" clip-rule="evenodd" d="M275.854 279.783C275.854 277.521 277.686 275.687 279.946 275.687H329.054C331.314 275.687 333.146 277.521 333.146 279.783C333.146 282.045 331.314 283.88 329.054 283.88H279.946C277.686 283.88 275.854 282.045 275.854 279.783Z" fill="#4F3422"/>
</g>
<g clip-path="url(#clip3_1_402)">
<path d="M93 311C93 294.431 79.5685 281 63 281C46.4315 281 33 294.431 33 311C33 327.569 46.4315 341 63 341C79.5685 341 93 327.569 93 311Z" fill="white"/>
<g filter="url(#filter2_ddddd_1_402)">
<path d="M87 311C87 297.745 76.2548 287 63 287C49.7452 287 39 297.745 39 311C39 324.255 49.7452 335 63 335C76.2548 335 87 324.255 87 311Z" fill="#ED7E1C"/>
<path fill-rule="evenodd" clip-rule="evenodd" d="M55.6984 315.48C57.7941 313.872 60.3619 313 63.0035 313C65.6451 313 68.2129 313.872 70.3086 315.48C72.4044 317.088 73.9109 319.343 74.5946 321.894C74.8805 322.961 74.2473 324.058 73.1804 324.344C72.1135 324.63 71.0168 323.996 70.7309 322.93C70.2751 321.228 69.2708 319.725 67.8736 318.653C66.4764 317.581 64.7646 317 63.0035 317C61.2424 317 59.5306 317.581 58.1334 318.653C56.7363 319.725 55.7319 321.228 55.2761 322.929C54.9902 323.996 53.8935 324.63 52.8266 324.344C51.7597 324.058 51.1265 322.961 51.4124 321.894C52.0961 319.343 53.6026 317.088 55.6984 315.48Z" fill="#663600"/>
<path fill-rule="evenodd" clip-rule="evenodd" d="M51 301C52.1046 301 53 301.895 53 303V309C53 310.105 52.1046 311 51 311C49.8954 311 49 310.105 49 309V303C49 301.895 49.8954 301 51 301Z" fill="#663600"/>
<path fill-rule="evenodd" clip-rule="evenodd" d="M75 301C76.1046 301 77 301.895 77 303V309C77 310.105 76.1046 311 75 311C73.8954 311 73 310.105 73 309V303C73 301.895 73.8954 301 75 301Z" fill="#663600"/>
</g>
</g>
</g>
<defs>
<filter id="filter0_ddddd_1_402" x="184.8" y="95.8667" width="86.4" height="105.6" filterUnits="userSpaceOnUse" color-interpolation-filters="sRGB">
<feFlood flood-opacity="0" result="BackgroundImageFix"/>
<feColorMatrix in="SourceAlpha" type="matrix" values="0 0 0 0 0 0 0 0 0 0 0 0 0 0 0 0 0 0 127 0" result="hardAlpha"/>
<feOffset/>
<feColorMatrix type="matrix" values="0 0 0 0 1 0 0 0 0 0.807843 0 0 0 0 0.360784 0 0 0 0.1 0"/>
<feBlend mode="normal" in2="BackgroundImageFix" result="effect1_dropShadow_1_402"/>
<feColorMatrix in="SourceAlpha" type="matrix" values="0 0 0 0 0 0 0 0 0 0 0 0 0 0 0 0 0 0 127 0" result="hardAlpha"/>
<feOffset dy="1.6"/>
<feGaussianBlur stdDeviation="1.86667"/>
<feColorMatrix type="matrix" values="0 0 0 0 1 0 0 0 0 0.807843 0 0 0 0 0.360784 0 0 0 0.1 0"/>
<feBlend mode="normal" in2="effect1_dropShadow_1_402" result="effect2_dropShadow_1_402"/>
<feColorMatrix in="SourceAlpha" type="matrix" values="0 0 0 0 0 0 0 0 0 0 0 0 0 0 0 0 0 0 127 0" result="hardAlpha"/>
<feOffset dy="6.93333"/>
<feGaussianBlur stdDeviation="3.46667"/>
<feColorMatrix type="matrix" values="0 0 0 0 1 0 0 0 0 0.807843 0 0 0 0 0.360784 0 0 0 0.09 0"/>
<feBlend mode="normal" in2="effect2_dropShadow_1_402" result="effect3_dropShadow_1_402"/>
<feColorMatrix in="SourceAlpha" type="matrix" values="0 0 0 0 0 0 0 0 0 0 0 0 0 0 0 0 0 0 127 0" result="hardAlpha"/>
<feOffset dy="16"/>
<feGaussianBlur stdDeviation="4.8"/>
<feColorMatrix type="matrix" values="0 0 0 0 1 0 0 0 0 0.807843 0 0 0 0 0.360784 0 0 0 0.05 0"/>
<feBlend mode="normal" in2="effect3_dropShadow_1_402" result="effect4_dropShadow_1_402"/>
<feColorMatrix in="SourceAlpha" type="matrix" values="0 0 0 0 0 0 0 0 0 0 0 0 0 0 0 0 0 0 127 0" result="hardAlpha"/>
<feOffset dy="28.2667"/>
<feGaussianBlur stdDeviation="5.6"/>
<feColorMatrix type="matrix" values="0 0 0 0 1 0 0 0 0 0.807843 0 0 0 0 0.360784 0 0 0 0.01 0"/>
<feBlend mode="normal" in2="effect4_dropShadow_1_402" result="effect5_dropShadow_1_402"/>
<feBlend mode="normal" in="SourceGraphic" in2="effect5_dropShadow_1_402" result="shape"/>
</filter>
<filter id="filter1_ddddd_1_402" x="238.592" y="211.041" width="131.815" height="160.713" filterUnits="userSpaceOnUse" color-interpolation-filters="sRGB">
<feFlood flood-opacity="0" result="BackgroundImageFix"/>
<feColorMatrix in="SourceAlpha" type="matrix" values="0 0 0 0 0 0 0 0 0 0 0 0 0 0 0 0 0 0 127 0" result="hardAlpha"/>
<feOffset/>
<feColorMatrix type="matrix" values="0 0 0 0 1 0 0 0 0 0.807843 0 0 0 0 0.360784 0 0 0 0.1 0"/>
<feBlend mode="normal" in2="BackgroundImageFix" result="effect1_dropShadow_1_402"/>
<feColorMatrix in="SourceAlpha" type="matrix" values="0 0 0 0 0 0 0 0 0 0 0 0 0 0 0 0 0 0 127 0" result="hardAlpha"/>
<feOffset dy="2.4"/>
<feGaussianBlur stdDeviation="2.8"/>
<feColorMatrix type="matrix" values="0 0 0 0 1 0 0 0 0 0.807843 0 0 0 0 0.360784 0 0 0 0.1 0"/>
<feBlend mode="normal" in2="effect1_dropShadow_1_402" result="effect2_dropShadow_1_402"/>
<feColorMatrix in="SourceAlpha" type="matrix" values="0 0 0 0 0 0 0 0 0 0 0 0 0 0 0 0 0 0 127 0" result="hardAlpha"/>
<feOffset dy="10.4"/>
<feGaussianBlur stdDeviation="5.2"/>
<feColorMatrix type="matrix" values="0 0 0 0 1 0 0 0 0 0.807843 0 0 0 0 0.360784 0 0 0 0.09 0"/>
<feBlend mode="normal" in2="effect2_dropShadow_1_402" result="effect3_dropShadow_1_402"/>
<feColorMatrix in="SourceAlpha" type="matrix" values="0 0 0 0 0 0 0 0 0 0 0 0 0 0 0 0 0 0 127 0" result="hardAlpha"/>
<feOffset dy="24"/>
<feGaussianBlur stdDeviation="7.2"/>
<feColorMatrix type="matrix" values="0 0 0 0 1 0 0 0 0 0.807843 0 0 0 0 0.360784 0 0 0 0.05 0"/>
<feBlend mode="normal" in2="effect3_dropShadow_1_402" result="effect4_dropShadow_1_402"/>
<feColorMatrix in="SourceAlpha" type="matrix" values="0 0 0 0 0 0 0 0 0 0 0 0 0 0 0 0 0 0 127 0" result="hardAlpha"/>
<feOffset dy="42.4"/>
<feGaussianBlur stdDeviation="8.4"/>
<feColorMatrix type="matrix" values="0 0 0 0 1 0 0 0 0 0.807843 0 0 0 0 0.360784 0 0 0 0.01 0"/>
<feBlend mode="normal" in2="effect4_dropShadow_1_402" result="effect5_dropShadow_1_402"/>
<feBlend mode="normal" in="SourceGraphic" in2="effect5_dropShadow_1_402" result="shape"/>
</filter>
<filter id="filter2_ddddd_1_402" x="30.6" y="285.4" width="64.8" height="79.2" filterUnits="userSpaceOnUse" color-interpolation-filters="sRGB">
<feFlood flood-opacity="0" result="BackgroundImageFix"/>
<feColorMatrix in="SourceAlpha" type="matrix" values="0 0 0 0 0 0 0 0 0 0 0 0 0 0 0 0 0 0 127 0" result="hardAlpha"/>
<feOffset/>
<feColorMatrix type="matrix" values="0 0 0 0 1 0 0 0 0 0.807843 0 0 0 0 0.360784 0 0 0 0.1 0"/>
<feBlend mode="normal" in2="BackgroundImageFix" result="effect1_dropShadow_1_402"/>
<feColorMatrix in="SourceAlpha" type="matrix" values="0 0 0 0 0 0 0 0 0 0 0 0 0 0 0 0 0 0 127 0" result="hardAlpha"/>
<feOffset dy="1.2"/>
<feGaussianBlur stdDeviation="1.4"/>
<feColorMatrix type="matrix" values="0 0 0 0 1 0 0 0 0 0.807843 0 0 0 0 0.360784 0 0 0 0.1 0"/>
<feBlend mode="normal" in2="effect1_dropShadow_1_402" result="effect2_dropShadow_1_402"/>
<feColorMatrix in="SourceAlpha" type="matrix" values="0 0 0 0 0 0 0 0 0 0 0 0 0 0 0 0 0 0 127 0" result="hardAlpha"/>
<feOffset dy="5.2"/>
<feGaussianBlur stdDeviation="2.6"/>
<feColorMatrix type="matrix" values="0 0 0 0 1 0 0 0 0 0.807843 0 0 0 0 0.360784 0 0 0 0.09 0"/>
<feBlend mode="normal" in2="effect2_dropShadow_1_402" result="effect3_dropShadow_1_402"/>
<feColorMatrix in="SourceAlpha" type="matrix" values="0 0 0 0 0 0 0 0 0 0 0 0 0 0 0 0 0 0 127 0" result="hardAlpha"/>
<feOffset dy="12"/>
<feGaussianBlur stdDeviation="3.6"/>
<feColorMatrix type="matrix" values="0 0 0 0 1 0 0 0 0 0.807843 0 0 0 0 0.360784 0 0 0 0.05 0"/>
<feBlend mode="normal" in2="effect3_dropShadow_1_402" result="effect4_dropShadow_1_402"/>
<feColorMatrix in="SourceAlpha" type="matrix" values="0 0 0 0 0 0 0 0 0 0 0 0 0 0 0 0 0 0 127 0" result="hardAlpha"/>
<feOffset dy="21.2"/>
<feGaussianBlur stdDeviation="4.2"/>
<feColorMatrix type="matrix" values="0 0 0 0 1 0 0 0 0 0.807843 0 0 0 0 0.360784 0 0 0 0.01 0"/>
<feBlend mode="normal" in2="effect4_dropShadow_1_402" result="effect5_dropShadow_1_402"/>
<feBlend mode="normal" in="SourceGraphic" in2="effect5_dropShadow_1_402" result="shape"/>
</filter>
<clipPath id="clip0_1_402">
<rect width="375" height="401" fill="white"/>
</clipPath>
<clipPath id="clip1_1_402">
<rect width="362" height="410" fill="white" transform="translate(6 67)"/>
</clipPath>
<clipPath id="clip2_1_402">
<rect width="88" height="112" fill="white" transform="translate(184 90)"/>
</clipPath>
<clipPath id="clip3_1_402">
<rect width="66" height="84" fill="white" transform="translate(30 281)"/>
</clipPath>
</defs>
</svg>
