<svg width="375" height="587" viewBox="0 0 375 587" fill="none" xmlns="http://www.w3.org/2000/svg">
<g clip-path="url(#clip0_1_144)">
<mask id="mask0_1_144" style="mask-type:luminance" maskUnits="userSpaceOnUse" x="-106" y="44" width="729" height="498">
<path d="M307.086 73.4414C205.221 27.092 64.6566 34.5866 29.7078 102.99C7.48441 146.421 35.9783 203.121 5.24054 240.717C-14.6776 265.074 -25.0977 268.023 -49.5035 287.865C-70.4052 304.85 -88.5712 321.467 -98.4073 347.668C-112.086 384.035 -106.338 425.961 -84.9441 457.966C-66.5322 485.518 -34.5342 499.77 -4.68776 511.196C37.7303 527.414 84.1444 534.294 129.36 532.297C191.788 529.564 253.663 508.124 315.6 516.417C345.661 520.441 374.401 531.376 404.155 537.304C461.512 548.699 532.424 539.331 566.758 485.272C581.205 462.512 586.369 435.606 583.141 408.914C579.576 379.489 571.123 349.203 577.148 319.502C583.848 286.513 607.885 259.699 618.09 227.663C635.549 172.898 604.289 107.136 550.928 86.3726C529.965 78.2023 507.066 76.4822 484.565 76.3594C424.442 75.9908 361.891 98.3823 307.086 73.4414Z" fill="white"/>
</mask>
<g mask="url(#mask0_1_144)">
<path d="M678 0H-149V562.458H678V0Z" fill="#F5F5F5"/>
</g>
<mask id="mask1_1_144" style="mask-type:luminance" maskUnits="userSpaceOnUse" x="-106" y="44" width="729" height="498">
<path d="M307.086 73.4414C205.221 27.092 64.6566 34.5866 29.7078 102.99C7.48441 146.421 35.9783 203.121 5.24054 240.717C-14.6776 265.074 -25.0977 268.023 -49.5035 287.865C-70.4052 304.85 -88.5712 321.467 -98.4073 347.668C-112.086 384.035 -106.338 425.961 -84.9441 457.966C-66.5322 485.518 -34.5342 499.77 -4.68776 511.196C37.7303 527.414 84.1444 534.294 129.36 532.297C191.788 529.564 253.663 508.124 315.6 516.417C345.661 520.441 374.401 531.376 404.155 537.304C461.512 548.699 532.424 539.331 566.758 485.272C581.205 462.512 586.369 435.606 583.141 408.914C579.576 379.489 571.123 349.203 577.148 319.502C583.848 286.513 607.885 259.699 618.09 227.663C635.549 172.898 604.289 107.136 550.928 86.3726C529.965 78.2023 507.066 76.4822 484.565 76.3594C424.442 75.9908 361.891 98.3823 307.086 73.4414Z" fill="white"/>
</mask>
<g mask="url(#mask1_1_144)">
<path d="M80.4565 439.753C65.2413 478.147 54.5753 525.633 45.2617 562.46L549.361 570.968C561.995 528.274 566.574 467.826 558.367 423.842C555.908 410.696 551.359 397.796 546.718 385.602C494.494 427.958 420.539 457.997 351.81 466.905C260.795 478.915 164.432 475.874 80.4565 439.753Z" fill="#736B66"/>
</g>
<path d="M88.1728 128.544L78.306 133.919C72.3121 138.403 73.1113 139.847 71.7281 147.219L68.2547 169.119C68.1318 169.856 67.056 169.856 66.933 169.119L63.5211 147.341C62.1687 140.001 62.2916 138.403 56.3592 133.919L47.0149 128.544C46.6461 128.267 46.6461 127.745 47.0149 127.469L57.5887 122.431C63.4904 117.947 63.1522 114.968 64.5047 107.657L66.933 86.9552C67.056 86.2181 68.1318 86.2181 68.2547 86.9552L71.1133 108.394C72.4351 115.643 73.1728 118.684 79.0437 123.169L88.2035 127.438C88.5417 127.745 88.5417 128.298 88.1728 128.544Z" fill="#C9C7C5"/>
<path d="M127.334 180.912L120.479 184.66C116.299 187.762 116.883 188.776 115.899 193.905L113.502 209.109C113.409 209.631 112.672 209.601 112.579 209.109L110.213 193.997C109.26 188.898 109.383 187.793 105.233 184.66L98.7782 180.912C98.5323 180.728 98.5323 180.36 98.7782 180.175L106.125 176.674C110.213 173.541 109.997 171.483 110.92 166.415L112.61 152.04C112.702 151.518 113.44 151.518 113.532 152.04L115.5 166.937C116.422 171.974 116.944 174.063 121.002 177.196L127.364 180.175C127.579 180.36 127.579 180.728 127.334 180.912Z" fill="#C9C7C5"/>
<path d="M223.388 200.48C202.855 187.426 196.185 158 209.034 137.022C221.882 116.043 252.251 106.675 274.597 116.842C283.511 120.896 291.626 127.684 301.616 127.746C311.452 127.807 319.997 121.265 328.942 117.026C346.093 108.917 368.225 109.685 381.841 121.818C388.542 127.777 392.968 136.07 400.53 141.015C410.243 147.373 423.276 147.035 435.11 144.977C446.944 142.919 458.778 139.387 470.674 140.216C482.538 141.046 493.85 146.39 501.596 154.867C512.139 166.386 516.903 183.74 531.596 189.914C537.528 192.402 544.26 192.617 550.776 193.354C576.657 196.241 602.446 209.602 612.344 232.485C622.58 256.136 621.166 298.492 595.069 304.697C536.76 318.519 591.504 350.401 528.245 374.052C515.766 378.721 497.262 349.449 486.104 342.968C479.065 338.883 474.608 331.788 468.399 326.627C459.362 319.041 446.452 315.846 434.403 318.181C404.403 324.047 384.792 360.414 354.423 359.216C347.446 358.94 339.546 355.131 339.3 348.435C339.177 345.364 340.714 342.446 342.251 339.712C349.444 326.904 357.774 313.881 358.542 299.536C359.28 285.407 336.565 290.537 324.362 282.981C311.698 275.149 282.835 299.69 273.398 288.418C268.019 281.998 260.212 260.682 256.032 253.464C247.364 238.444 260.304 198.084 242.599 202.568L223.388 200.48Z" fill="#3F3C36"/>
<path d="M206.328 171.024C200.98 167.369 192.988 169.642 187.548 172.161C180.939 175.232 178.019 180.914 179.648 188.071C180.693 192.648 183.275 197.132 182.353 201.954C181.093 208.62 174.822 206.562 170.15 208.681C167.691 209.787 166.062 211.845 165.109 214.302C164.341 216.268 162.988 221.428 163.88 223.117C163.019 221.52 160.591 222.933 161.451 224.53C162.158 225.882 163.726 226.834 165.263 226.066C167.384 225.022 166.523 222.073 166.707 220.138C166.923 217.926 167.353 215.438 168.613 213.565C170.488 210.8 173.439 210.8 176.39 210.34C179.248 209.879 181.83 209.142 183.552 206.685C187.947 200.357 183.306 193.047 182.169 186.597C181.093 180.423 184.566 176.43 189.976 174.249C194.402 172.468 200.703 170.625 204.915 173.512C206.421 174.464 207.835 172.038 206.328 171.024Z" fill="#3F3C36"/>
<path d="M205.009 167.827C197.57 165.093 189.793 160.363 181.617 163.127C179.004 164.018 176.545 165.677 175.131 168.072C174.271 169.547 173.902 171.205 173.656 172.864C173.472 173.97 173.625 176.12 172.949 177.072C171.289 178.086 169.599 179.068 167.939 180.082C167.478 179.775 166.986 179.591 166.463 179.529C159.978 179.314 156.996 183.921 155.275 189.665C154.138 193.505 153.584 197.713 151.094 200.968C147.775 205.299 142.027 206.559 137.017 204.746C136.248 204.47 135.572 205.084 135.295 205.729C134.65 207.296 134.803 208.371 135.787 209.753C136.832 211.197 139.291 209.814 138.215 208.34C138.154 207.726 138.092 207.111 138.031 206.497C137.447 206.835 136.863 207.142 136.31 207.48C142.273 209.599 149.281 207.941 153.277 202.873C157.457 197.559 156.32 186.01 162.806 183.031C166.402 181.372 169.691 184.843 173.195 181.956C175.9 179.713 175.9 176.243 176.545 173.11C179.496 158.981 196.064 167.581 204.302 170.591C205.992 171.144 206.699 168.441 205.009 167.827Z" fill="#3F3C36"/>
<path d="M279.514 341C282.987 361.918 303.459 367.293 322.024 366.402C345.539 365.296 368.223 357.341 387.619 344.164C396.902 337.867 405.416 330.496 413.285 322.51C415.867 319.899 433.848 295.88 435.477 296.187C409.842 291.303 383.162 290.566 357.803 290.597C333.028 290.627 310.59 290.289 289.565 291.18C280.774 306.169 276.563 323.063 279.514 341Z" fill="#C9C7C5"/>
<path d="M481.339 310.869C466.831 303.835 451.339 299.228 435.478 296.218C433.819 295.91 414.331 321.558 411.503 324.322C402.558 333.168 392.784 341.185 382.056 347.789C361.154 360.658 332.199 367.416 308.408 365.112C273.214 361.672 274.72 316.52 289.566 291.211C252.681 292.777 220.222 298.153 187.578 316.09C148.418 337.622 117.711 374.05 95.7644 414.809C91.6456 422.488 87.8034 430.873 84.207 439.75C169.904 475.871 268.203 478.912 361.062 466.902C431.206 457.995 493.419 427.955 546.718 385.599C534.393 353.839 513.86 326.595 481.339 310.869Z" fill="#736B66"/>
<path d="M377.202 294.313L254.712 183.124C239.097 189.298 221.638 185.458 209.159 174.77C201.075 204.993 194.374 256.134 226.034 292.624L252.038 262.83C252.038 262.83 265.716 296.617 279.241 329.82C291.905 360.904 331.833 369.566 356.27 346.591C356.577 346.284 356.915 345.977 357.223 345.669C377.448 326.534 397.827 313.019 377.202 294.313Z" fill="#C9C7C5"/>
<path d="M254.71 183.126L217.702 149.523C217.702 149.523 213.276 159.475 209.188 174.771C221.636 185.46 239.095 189.3 254.71 183.126Z" fill="#C9C7C5"/>
<path d="M297.19 187.888C295.961 199.069 285.879 207.147 274.69 205.918C263.502 204.69 255.418 194.615 256.647 183.435C257.877 172.254 267.959 164.176 279.147 165.405C290.336 166.633 298.42 176.708 297.19 187.888Z" fill="#C9C7C5"/>
<path d="M273.709 194.799C276.905 188.041 280.133 181.284 283.452 174.619C284.252 172.991 281.823 171.578 281.024 173.206C277.705 179.902 274.477 186.659 271.28 193.386C270.481 195.014 272.909 196.427 273.709 194.799Z" fill="#3F3C36"/>
<path d="M252.039 262.864L280.164 331.083L269.652 239.582L252.039 262.864Z" fill="#3F3C36"/>
<path d="M204.363 196.885C200.583 209.509 197.601 223.024 196.372 236.17C196.279 237.276 197.632 237.859 198.493 237.368C203.073 234.88 207.652 232.423 212.232 229.935C213.831 229.075 212.417 226.648 210.818 227.508C206.238 229.996 201.659 232.453 197.079 234.941C197.786 235.34 198.493 235.74 199.2 236.17C200.398 223.3 203.38 210 207.099 197.653C207.591 195.902 204.886 195.134 204.363 196.885Z" fill="#3F3C36"/>
<path d="M227.509 207.73C231.966 202.631 238.144 199.959 244.937 200.266C246.75 200.358 246.75 197.532 244.937 197.471C237.468 197.133 230.459 200.143 225.541 205.764C224.343 207.085 226.31 209.081 227.509 207.73Z" fill="#3F3C36"/>
<path d="M220.901 247.412C227.909 251.62 236.547 244.586 233.35 236.876C232.674 235.218 229.938 235.955 230.645 237.613C232.828 242.927 227.387 248.026 222.315 244.954C220.778 244.033 219.364 246.46 220.901 247.412Z" fill="#3F3C36"/>
<path d="M225.725 199.527C226.401 201.124 227.077 202.722 227.784 204.319C228.092 205.025 229.106 205.179 229.721 204.81C230.459 204.411 230.52 203.582 230.213 202.875C229.536 201.278 228.86 199.681 228.153 198.084C227.846 197.377 226.832 197.224 226.217 197.592C225.479 197.992 225.418 198.821 225.725 199.527Z" fill="#3F3C36"/>
<path d="M237.439 198.7C236.824 196.796 236.178 194.891 235.564 192.987C235.01 191.267 232.275 192.004 232.859 193.724C233.473 195.628 234.119 197.533 234.734 199.437C235.287 201.157 237.992 200.42 237.439 198.7Z" fill="#3F3C36"/>
<path d="M243.952 198.301C243.706 197.011 244.044 195.629 244.905 194.615C246.073 193.233 244.075 191.237 242.907 192.619C241.37 194.462 240.786 196.673 241.247 199.038C241.585 200.82 244.29 200.083 243.952 198.301Z" fill="#3F3C36"/>
<path d="M223.944 174.678C228.309 172.989 233.011 174.125 236.054 177.688C237.222 179.071 239.22 177.074 238.052 175.692C234.395 171.453 228.431 169.917 223.206 171.945C221.546 172.62 222.253 175.323 223.944 174.678Z" fill="#3F3C36"/>
<path d="M245.672 400.343C230.15 413.919 203.162 429.676 185.18 440.211C191.051 440.672 203.562 444.604 200.887 449.518C198.213 454.432 192.527 457.197 187.24 459.623C178.019 463.831 168.797 468.07 159.576 472.278C155.488 474.152 151.215 476.056 146.666 476.148C142.117 476.24 137.199 473.937 136 469.851C135.232 467.302 143.531 457.873 141.256 456.306C139.074 454.801 128.285 462.203 125.887 463.432C101.082 476.363 76.2457 489.325 51.4403 502.256C48.8891 503.577 46.1227 504.959 43.2641 504.591C40.1903 504.191 37.8542 501.949 35.764 499.799C-1.7053 461.313 -39.1747 422.796 -76.6133 384.309C-56.0497 367.017 -31.982 353.379 -6.10079 344.41C9.514 338.974 26.0202 335.134 40.0366 326.688L245.672 400.343Z" fill="#ACA9A5"/>
<path d="M248.408 396.26C220.959 406.181 195.57 421.385 174.238 440.736C179.34 440.214 184.596 441.196 189.115 443.531C181.522 449.182 173.469 454.22 165.016 458.581C159.576 461.407 153.182 463.987 147.373 461.991C141.563 459.994 138.858 451.056 144.268 448.169C111.502 460.086 78.7661 472.004 45.9996 483.952C44.0324 484.659 41.9115 485.396 39.8521 484.904C37.7926 484.382 36.2865 482.723 34.934 481.157C-3.08865 436.773 -36.9309 387.015 -87.4023 356.084C-78.304 352.583 -69.1748 349.112 -60.0765 345.61C-73.8162 335.382 -45.9678 331.389 -61.6133 324.079C-19.1645 318.55 24.852 313.728 71.5427 329.208C71.5427 329.208 101.574 270.143 144.453 261.973L248.408 396.26Z" fill="white"/>
<path d="M125.734 242.621C99.1761 260.989 55.467 291.52 39.053 317.198C-5.48601 311.055 -51.4697 311.208 -96.5312 317.72C-43.1398 355.899 4.28861 400.221 44.2784 449.243C45.3542 450.564 46.5224 451.946 48.2437 452.622C50.7335 453.604 53.7149 452.806 56.3891 452.069C91.2765 442.363 127.762 439.291 163.91 436.281C188.777 409.497 220.345 387.321 255.632 371.871L125.734 242.621Z" fill="white"/>
<mask id="mask2_1_144" style="mask-type:luminance" maskUnits="userSpaceOnUse" x="-97" y="242" width="353" height="212">
<path d="M125.734 242.621C99.1761 260.989 55.467 291.52 39.053 317.198C-5.48601 311.055 -51.4697 311.208 -96.5312 317.72C-43.1398 355.899 4.28861 400.221 44.2784 449.243C45.3542 450.564 46.5224 451.946 48.2437 452.622C50.7335 453.604 53.7149 452.806 56.3891 452.069C91.2765 442.363 127.762 439.291 163.91 436.281C188.777 409.497 220.345 387.321 255.632 371.871L125.734 242.621Z" fill="white"/>
</mask>
<g mask="url(#mask2_1_144)">
<path d="M-31.306 350.861C-7.14616 342.415 18.3048 338.913 43.8479 340.51C45.6614 340.633 45.6614 337.807 43.8479 337.685C18.0896 336.057 -7.66869 339.62 -32.0437 348.128C-33.765 348.742 -33.0273 351.445 -31.306 350.861Z" fill="#C9C7C5"/>
</g>
<mask id="mask3_1_144" style="mask-type:luminance" maskUnits="userSpaceOnUse" x="-97" y="242" width="353" height="212">
<path d="M125.734 242.621C99.1761 260.989 55.467 291.52 39.053 317.198C-5.48601 311.055 -51.4697 311.208 -96.5312 317.72C-43.1398 355.899 4.28861 400.221 44.2784 449.243C45.3542 450.564 46.5224 451.946 48.2437 452.622C50.7335 453.604 53.7149 452.806 56.3891 452.069C91.2765 442.363 127.762 439.291 163.91 436.281C188.777 409.497 220.345 387.321 255.632 371.871L125.734 242.621Z" fill="white"/>
</mask>
<g mask="url(#mask3_1_144)">
<path d="M-20.6093 361.488C2.35177 352.58 27.1572 349.754 51.6245 348.864C53.438 348.802 53.438 345.976 51.6245 346.069C26.942 346.99 1.82922 349.816 -21.347 358.815C-23.0376 359.43 -22.2999 362.133 -20.6093 361.488Z" fill="#C9C7C5"/>
</g>
<mask id="mask4_1_144" style="mask-type:luminance" maskUnits="userSpaceOnUse" x="-97" y="242" width="353" height="212">
<path d="M125.734 242.621C99.1761 260.989 55.467 291.52 39.053 317.198C-5.48601 311.055 -51.4697 311.208 -96.5312 317.72C-43.1398 355.899 4.28861 400.221 44.2784 449.243C45.3542 450.564 46.5224 451.946 48.2437 452.622C50.7335 453.604 53.7149 452.806 56.3891 452.069C91.2765 442.363 127.762 439.291 163.91 436.281C188.777 409.497 220.345 387.321 255.632 371.871L125.734 242.621Z" fill="white"/>
</mask>
<g mask="url(#mask4_1_144)">
<path d="M-3.85818 371.472C18.0579 362.104 41.9719 360.015 65.4555 358.111C67.2383 357.957 67.2691 355.162 65.4555 355.285C41.4186 357.251 17.1357 359.432 -5.27212 369.046C-6.93196 369.752 -5.48728 372.179 -3.85818 371.472Z" fill="#C9C7C5"/>
</g>
<mask id="mask5_1_144" style="mask-type:luminance" maskUnits="userSpaceOnUse" x="-97" y="242" width="353" height="212">
<path d="M125.734 242.621C99.1761 260.989 55.467 291.52 39.053 317.198C-5.48601 311.055 -51.4697 311.208 -96.5312 317.72C-43.1398 355.899 4.28861 400.221 44.2784 449.243C45.3542 450.564 46.5224 451.946 48.2437 452.622C50.7335 453.604 53.7149 452.806 56.3891 452.069C91.2765 442.363 127.762 439.291 163.91 436.281C188.777 409.497 220.345 387.321 255.632 371.871L125.734 242.621Z" fill="white"/>
</mask>
<g mask="url(#mask5_1_144)">
<path d="M10.3116 386.737C32.8731 378.351 56.3875 373.038 80.363 370.949C82.1458 370.795 82.1765 367.97 80.363 368.123C56.1416 370.243 32.3506 375.526 9.54312 384.003C7.88328 384.648 8.62099 387.351 10.3116 386.737Z" fill="#C9C7C5"/>
</g>
<mask id="mask6_1_144" style="mask-type:luminance" maskUnits="userSpaceOnUse" x="-97" y="242" width="353" height="212">
<path d="M125.734 242.621C99.1761 260.989 55.467 291.52 39.053 317.198C-5.48601 311.055 -51.4697 311.208 -96.5312 317.72C-43.1398 355.899 4.28861 400.221 44.2784 449.243C45.3542 450.564 46.5224 451.946 48.2437 452.622C50.7335 453.604 53.7149 452.806 56.3891 452.069C91.2765 442.363 127.762 439.291 163.91 436.281C188.777 409.497 220.345 387.321 255.632 371.871L125.734 242.621Z" fill="white"/>
</mask>
<g mask="url(#mask6_1_144)">
<path d="M26.2969 400.252C45.9076 393.033 65.8257 385.846 86.9733 385.201C88.7868 385.14 88.7868 382.345 86.9733 382.375C65.5798 383.02 45.4158 390.208 25.5592 397.518C23.8686 398.163 24.6063 400.897 26.2969 400.252Z" fill="#C9C7C5"/>
</g>
<mask id="mask7_1_144" style="mask-type:luminance" maskUnits="userSpaceOnUse" x="-97" y="242" width="353" height="212">
<path d="M125.734 242.621C99.1761 260.989 55.467 291.52 39.053 317.198C-5.48601 311.055 -51.4697 311.208 -96.5312 317.72C-43.1398 355.899 4.28861 400.221 44.2784 449.243C45.3542 450.564 46.5224 451.946 48.2437 452.622C50.7335 453.604 53.7149 452.806 56.3891 452.069C91.2765 442.363 127.762 439.291 163.91 436.281C188.777 409.497 220.345 387.321 255.632 371.871L125.734 242.621Z" fill="white"/>
</mask>
<g mask="url(#mask7_1_144)">
<path d="M40.2201 413.4C47.5049 407.81 58.9701 407.287 67.6997 405.475C78.3349 403.264 89.1854 400.376 100.067 402.312C101.849 402.619 102.587 399.916 100.804 399.609C89.9538 397.674 79.3493 400.192 68.7448 402.404C63.0583 403.571 57.341 404.738 51.6545 405.936C47.0131 406.919 42.6176 408.025 38.8061 410.973C37.3922 412.079 38.7754 414.506 40.2201 413.4Z" fill="#C9C7C5"/>
</g>
<mask id="mask8_1_144" style="mask-type:luminance" maskUnits="userSpaceOnUse" x="-97" y="242" width="353" height="212">
<path d="M125.734 242.621C99.1761 260.989 55.467 291.52 39.053 317.198C-5.48601 311.055 -51.4697 311.208 -96.5312 317.72C-43.1398 355.899 4.28861 400.221 44.2784 449.243C45.3542 450.564 46.5224 451.946 48.2437 452.622C50.7335 453.604 53.7149 452.806 56.3891 452.069C91.2765 442.363 127.762 439.291 163.91 436.281C188.777 409.497 220.345 387.321 255.632 371.871L125.734 242.621Z" fill="white"/>
</mask>
<g mask="url(#mask8_1_144)">
<path d="M50.7631 428.357C72.0029 417.299 95.8862 414.074 119.308 411.064C121.091 410.849 121.091 408.023 119.308 408.238C95.3329 411.31 71.0193 414.627 49.3184 425.93C47.7508 426.76 49.1647 429.186 50.7631 428.357Z" fill="#C9C7C5"/>
</g>
<mask id="mask9_1_144" style="mask-type:luminance" maskUnits="userSpaceOnUse" x="-97" y="242" width="353" height="212">
<path d="M125.734 242.621C99.1761 260.989 55.467 291.52 39.053 317.198C-5.48601 311.055 -51.4697 311.208 -96.5312 317.72C-43.1398 355.899 4.28861 400.221 44.2784 449.243C45.3542 450.564 46.5224 451.946 48.2437 452.622C50.7335 453.604 53.7149 452.806 56.3891 452.069C91.2765 442.363 127.762 439.291 163.91 436.281C188.777 409.497 220.345 387.321 255.632 371.871L125.734 242.621Z" fill="white"/>
</mask>
<g mask="url(#mask9_1_144)">
<path d="M74.4611 325.185C92.289 306.203 111.254 286.392 136.89 278.621C138.611 278.099 137.873 275.396 136.152 275.918C110.025 283.843 90.6599 303.869 72.4631 323.22C71.2336 324.51 73.2008 326.506 74.4611 325.185Z" fill="#C9C7C5"/>
</g>
<mask id="mask10_1_144" style="mask-type:luminance" maskUnits="userSpaceOnUse" x="-97" y="242" width="353" height="212">
<path d="M125.734 242.621C99.1761 260.989 55.467 291.52 39.053 317.198C-5.48601 311.055 -51.4697 311.208 -96.5312 317.72C-43.1398 355.899 4.28861 400.221 44.2784 449.243C45.3542 450.564 46.5224 451.946 48.2437 452.622C50.7335 453.604 53.7149 452.806 56.3891 452.069C91.2765 442.363 127.762 439.291 163.91 436.281C188.777 409.497 220.345 387.321 255.632 371.871L125.734 242.621Z" fill="white"/>
</mask>
<g mask="url(#mask10_1_144)">
<path d="M87.2504 333.846C101.421 313.727 124.166 302.7 145.806 292.411C147.435 291.643 146.021 289.216 144.392 289.984C122.23 300.52 99.3304 311.854 84.8221 332.402C83.777 333.907 86.2053 335.32 87.2504 333.846Z" fill="#C9C7C5"/>
</g>
<mask id="mask11_1_144" style="mask-type:luminance" maskUnits="userSpaceOnUse" x="-97" y="242" width="353" height="212">
<path d="M125.734 242.621C99.1761 260.989 55.467 291.52 39.053 317.198C-5.48601 311.055 -51.4697 311.208 -96.5312 317.72C-43.1398 355.899 4.28861 400.221 44.2784 449.243C45.3542 450.564 46.5224 451.946 48.2437 452.622C50.7335 453.604 53.7149 452.806 56.3891 452.069C91.2765 442.363 127.762 439.291 163.91 436.281C188.777 409.497 220.345 387.321 255.632 371.871L125.734 242.621Z" fill="white"/>
</mask>
<g mask="url(#mask11_1_144)">
<path d="M100.869 343.919C106.893 334.09 116.114 327.209 125.735 321.159C135.848 314.831 146.36 309.21 157.211 304.204C158.84 303.436 157.426 301.009 155.797 301.777C144.055 307.214 132.59 313.357 121.709 320.391C112.61 326.288 104.157 333.138 98.4403 342.506C97.4874 344.072 99.9157 345.485 100.869 343.919Z" fill="#C9C7C5"/>
</g>
<mask id="mask12_1_144" style="mask-type:luminance" maskUnits="userSpaceOnUse" x="-97" y="242" width="353" height="212">
<path d="M125.734 242.621C99.1761 260.989 55.467 291.52 39.053 317.198C-5.48601 311.055 -51.4697 311.208 -96.5312 317.72C-43.1398 355.899 4.28861 400.221 44.2784 449.243C45.3542 450.564 46.5224 451.946 48.2437 452.622C50.7335 453.604 53.7149 452.806 56.3891 452.069C91.2765 442.363 127.762 439.291 163.91 436.281C188.777 409.497 220.345 387.321 255.632 371.871L125.734 242.621Z" fill="white"/>
</mask>
<g mask="url(#mask12_1_144)">
<path d="M111.134 354.486C130.437 339.036 151.769 326.35 174.546 316.675C176.206 315.969 174.761 313.542 173.132 314.249C150.11 324.016 128.655 336.886 109.136 352.489C107.722 353.626 109.72 355.622 111.134 354.486Z" fill="#C9C7C5"/>
</g>
<mask id="mask13_1_144" style="mask-type:luminance" maskUnits="userSpaceOnUse" x="-97" y="242" width="353" height="212">
<path d="M125.734 242.621C99.1761 260.989 55.467 291.52 39.053 317.198C-5.48601 311.055 -51.4697 311.208 -96.5312 317.72C-43.1398 355.899 4.28861 400.221 44.2784 449.243C45.3542 450.564 46.5224 451.946 48.2437 452.622C50.7335 453.604 53.7149 452.806 56.3891 452.069C91.2765 442.363 127.762 439.291 163.91 436.281C188.777 409.497 220.345 387.321 255.632 371.871L125.734 242.621Z" fill="white"/>
</mask>
<g mask="url(#mask13_1_144)">
<path d="M123.427 367.448C141.5 354.579 160.128 341.555 182.136 336.61C183.888 336.211 183.15 333.508 181.398 333.907C159.144 338.914 140.302 352.029 122.013 365.022C120.537 366.066 121.921 368.493 123.427 367.448Z" fill="#C9C7C5"/>
</g>
<mask id="mask14_1_144" style="mask-type:luminance" maskUnits="userSpaceOnUse" x="-97" y="242" width="353" height="212">
<path d="M125.734 242.621C99.1761 260.989 55.467 291.52 39.053 317.198C-5.48601 311.055 -51.4697 311.208 -96.5312 317.72C-43.1398 355.899 4.28861 400.221 44.2784 449.243C45.3542 450.564 46.5224 451.946 48.2437 452.622C50.7335 453.604 53.7149 452.806 56.3891 452.069C91.2765 442.363 127.762 439.291 163.91 436.281C188.777 409.497 220.345 387.321 255.632 371.871L125.734 242.621Z" fill="white"/>
</mask>
<g mask="url(#mask14_1_144)">
<path d="M142.21 380.411C160.438 366.559 180.909 356.116 202.825 349.512C204.546 348.99 203.809 346.287 202.087 346.809C179.925 353.474 159.208 363.979 140.796 377.985C139.352 379.06 140.766 381.517 142.21 380.411Z" fill="#C9C7C5"/>
</g>
<mask id="mask15_1_144" style="mask-type:luminance" maskUnits="userSpaceOnUse" x="-97" y="242" width="353" height="212">
<path d="M125.734 242.621C99.1761 260.989 55.467 291.52 39.053 317.198C-5.48601 311.055 -51.4697 311.208 -96.5312 317.72C-43.1398 355.899 4.28861 400.221 44.2784 449.243C45.3542 450.564 46.5224 451.946 48.2437 452.622C50.7335 453.604 53.7149 452.806 56.3891 452.069C91.2765 442.363 127.762 439.291 163.91 436.281C188.777 409.497 220.345 387.321 255.632 371.871L125.734 242.621Z" fill="white"/>
</mask>
<g mask="url(#mask15_1_144)">
<path d="M-53.4386 334.185C-33.582 331.298 -13.5717 329.486 6.46933 328.748C15.6292 328.411 24.8198 328.318 34.0104 328.441C40.8035 328.533 49.0104 330.653 54.2973 325.339C60.4449 319.165 66.0392 312.377 72.1867 306.203C78.0576 300.306 84.113 294.624 90.3528 289.095C103.97 277.055 118.416 265.997 133.539 255.892C135.045 254.878 133.632 252.452 132.125 253.465C103.908 272.324 78.0269 294.624 55.3732 319.933C54.1129 321.346 52.9141 323.097 51.408 324.264C48.826 326.291 46.1825 325.923 43.201 325.83C38.9284 325.708 34.6251 325.615 30.3526 325.585C20.578 325.523 10.7726 325.708 0.998009 326.138C-17.4754 326.998 -35.8566 328.779 -54.1763 331.451C-55.9591 331.728 -55.1906 334.431 -53.4386 334.185Z" fill="#ACA9A5"/>
</g>
<path d="M173.194 445.834C168.86 447.094 164.526 448.476 160.162 449.643C159.701 449.766 157.703 450.595 157.272 450.319C156.043 449.428 157.549 447.984 158.041 447.493C159.639 445.834 163.481 445.435 165.664 445.312C167.016 445.22 167.016 443.131 165.664 443.193C162.928 443.346 150.633 446.141 153.676 451.056C154.69 452.714 157.211 452.53 158.84 452.223C163.85 451.209 168.83 449.336 173.748 447.892C175.039 447.493 174.485 445.466 173.194 445.834Z" fill="#3F3C36"/>
<path d="M125.95 446.878C99.208 451.578 73.2961 459.871 48.7981 471.573C49.3513 471.635 49.9354 471.727 50.4886 471.788C14.9865 434.5 -22.2984 398.963 -61.2432 365.299C-62.5956 364.131 -64.5936 366.097 -63.2411 367.295C-24.2964 400.959 12.9886 436.497 48.4907 473.785C48.9518 474.276 49.628 474.276 50.1813 474C74.4641 462.39 100.161 454.25 126.657 449.581C128.501 449.274 127.733 446.571 125.95 446.878Z" fill="#3F3C36"/>
<path d="M153.151 424.794C122.26 385.325 84.944 351.262 43.1714 323.587C42.0341 322.85 40.989 324.662 42.0956 325.399C83.7145 352.982 120.877 386.953 151.676 426.268C152.475 427.374 153.981 425.869 153.151 424.794Z" fill="#3F3C36"/>
<path d="M-63.4578 345.823C-23.6524 378.259 14.6776 412.414 51.5015 448.197C52.7925 449.457 54.7904 447.46 53.4994 446.201C16.7063 410.417 -21.6544 376.262 -61.4599 343.827C-62.8431 342.69 -64.8718 344.687 -63.4578 345.823Z" fill="#3F3C36"/>
<path d="M54.2371 448.783C65.5486 447.124 76.8908 445.865 88.2945 444.974C90.0773 444.821 90.108 442.026 88.2945 442.148C76.6449 443.039 65.0568 444.36 53.4686 446.049C51.7166 446.356 52.4543 449.059 54.2371 448.783Z" fill="#3F3C36"/>
<path d="M212.199 141.505C206.666 133.519 216.748 122.769 222.25 117.517C228.305 111.742 235.59 107.258 243.398 104.278C258.09 98.6574 274.719 98.2274 289.412 104.125C298.08 107.596 305.826 111.865 315.416 109.316C323.562 107.135 331.031 102.282 338.162 97.951C353.009 88.9207 368.162 80.4432 386.082 84.9277C413.746 91.8693 433.388 118.561 462.773 120.527C480.909 121.755 500.765 108.609 517.794 118.991C530.181 126.516 535.775 141.29 547.241 149.952C560.058 159.597 580.437 158.184 590.458 144.976C594.239 140 596.698 131.646 591.103 126.946C587.077 123.568 580.253 123.506 577.64 128.543C576.81 130.141 579.239 131.584 580.069 129.956C582.189 125.871 588.368 126.946 590.55 130.478C593.808 135.669 589.444 142.611 585.601 146.082C579.085 152.01 569.679 154.529 561.042 153.023C545.704 150.321 538.296 135.454 528.798 124.888C524.71 120.312 519.915 116.227 514.075 114.046C506.298 111.159 497.968 112.141 490.038 113.739C481.031 115.551 472.056 118.315 462.742 117.67C455.458 117.179 448.449 114.814 441.902 111.681C418.818 100.654 397.21 77.4024 369.515 81.0575C353.377 83.1769 340.375 93.9887 326.482 101.452C322.24 103.725 317.814 105.968 313.049 106.951C306.933 108.21 301.369 106.244 295.836 103.848C289.197 100.961 282.681 98.5346 275.426 97.5824C259.781 95.5245 243.459 99.3331 230.15 107.78C220.959 113.616 201.01 130.356 209.709 142.918C210.816 144.392 213.244 142.98 212.199 141.505Z" fill="#3F3C36"/>
<path d="M372.897 274.716C389.495 281.566 400.223 296.34 403.327 313.725C404.587 320.789 405.755 328.714 411.841 333.413C417.067 337.468 423.921 337.621 430.223 337.713C439.598 337.867 448.112 338.788 454.721 346.252C460.899 353.194 462.743 361.825 463.266 370.824C463.665 377.889 464.126 385.906 469.813 390.943C473.87 394.537 479.588 395.949 484.905 395.274C491.206 394.475 497.2 390.482 499.014 384.155C500.827 377.827 496.432 370.824 489.362 372.544C487.61 372.974 488.348 375.677 490.1 375.247C498.614 373.159 496.954 384.646 493.358 388.332C490.868 390.881 487.364 392.294 483.829 392.571C477.067 393.154 470.674 389.837 468.092 383.448C465.233 376.384 466.585 368.398 465.049 361.057C463.85 355.313 461.329 349.784 457.579 345.238C453.768 340.6 448.665 337.16 442.764 335.84C436.432 334.427 429.915 335.225 423.522 334.611C414.762 333.72 409.598 328.806 407.507 320.359C405.848 313.663 405.294 306.937 402.62 300.548C397.18 287.555 386.667 277.358 373.696 271.983C371.975 271.307 371.237 274.01 372.897 274.716Z" fill="#3F3C36"/>
<path d="M-8.25044 310.194C-14.7669 304.451 -11.7545 292.502 -4.46969 288.11C2.8459 283.718 12.1902 284.977 20.3357 287.649C12.8049 283.81 10.684 272.323 15.725 265.534C20.766 258.746 31.1554 257.487 38.2865 262.094C33.2148 259.115 32.139 250.914 36.2579 246.798C40.0693 242.959 46.2169 243.235 51.5345 244.218C67.5489 247.228 82.7949 254.723 95.1822 265.688C96.258 266.64 97.3953 267.93 97.0265 269.312C96.7498 270.295 95.7662 270.879 94.8748 271.309C82.1186 277.391 66.3809 276.531 54.1165 269.097C61.2477 271.616 68.3174 274.288 75.3563 277.053C80.8276 279.203 87.4362 284.148 85.1002 289.585C83.8399 292.533 80.428 293.67 77.385 294.438C60.8481 298.492 43.5427 299.413 26.6062 297.171C39.5775 299.383 52.303 303.437 64.2292 309.242C66.1657 310.194 68.3174 311.485 68.6862 313.635C69.1473 316.338 66.5653 318.457 64.1678 319.593C52.8563 324.876 39.639 322.757 27.3132 320.515C15.9709 318.457 1.33975 312.652 -8.25044 310.194Z" fill="#C9C7C5"/>
<path d="M12.4638 287.988C18.5498 291.766 24.8818 295.053 31.4597 297.879C33.1196 298.585 34.5335 296.159 32.8737 295.452C26.2958 292.657 19.9638 289.34 13.8777 285.562C12.3408 284.579 10.9269 287.006 12.4638 287.988Z" fill="#3F3C36"/>
<path d="M31.7687 259.975C47.7216 268.576 64.7811 274.749 82.5782 278.251C84.361 278.589 85.0987 275.886 83.3159 275.548C65.7647 272.077 48.9511 266.057 33.1826 257.549C31.5843 256.689 30.1703 259.115 31.7687 259.975Z" fill="#3F3C36"/>
<path d="M66.2581 275.731C67.4261 283.655 75.6946 288.908 83.3791 287.003C85.1311 286.573 84.3934 283.87 82.6413 284.3C76.3094 285.867 69.9466 281.352 68.9938 274.993C68.6864 273.181 65.9815 273.949 66.2581 275.731Z" fill="#3F3C36"/>
<path d="M78.7058 257.977C81.6566 264.826 89.0029 269.003 96.4107 268.02C98.1935 267.775 98.1935 264.98 96.4107 265.225C89.8636 266.085 83.7468 262.645 81.1341 256.564C80.4271 254.874 77.9988 256.318 78.7058 257.977Z" fill="#3F3C36"/>
<path d="M48.3965 308.015C53.2838 313.759 60.6916 316.216 68.0686 314.772C69.8514 314.434 69.083 311.701 67.3309 312.069C60.876 313.329 54.6362 311.025 50.3944 306.049C49.1956 304.667 47.2284 306.663 48.3965 308.015Z" fill="#3F3C36"/>
<path d="M409.66 546.208C404.65 540.127 335.49 455.998 330.449 449.885C305.49 419.6 276.32 393.646 246.566 368.06C216.443 342.167 172.334 335.071 136.463 351.013C134.834 351.719 130.992 355.681 130.07 357.186C128.133 360.319 130.654 364.681 134.127 365.94C137.6 367.2 141.442 366.278 144.947 365.203C150.848 363.422 156.75 361.241 162.897 361.333C169.045 361.425 175.654 364.405 177.928 370.118C176.145 376.568 167.109 376.66 160.5 375.493C136.617 371.223 112.057 365.971 87.8051 365.111C82.0878 364.927 74.6186 369.534 74.9874 375.247C75.2333 378.841 78.8911 381.083 82.1493 382.649C101.821 392.048 123.092 396.195 144.209 401.57C127.119 396.41 109.383 394.536 92.2928 389.376C87.6821 387.994 81.6268 385.352 76.8932 385.997C72.1288 386.642 67.3952 389.96 66.6882 394.721C66.0735 398.929 68.8091 403.044 72.3747 405.379C75.9403 407.713 81.5038 409.894 85.6534 410.846C104.649 415.238 123.276 421.32 141.227 428.937C126.412 423.992 111.104 420.521 95.6125 418.556C90.51 417.911 84.6391 417.696 81.0735 421.412C76.8624 425.835 78.6759 433.545 83.1637 437.691C87.6514 441.838 93.8297 443.404 99.7006 445.094C145.469 458.24 179.895 463.277 260.951 586.968L409.66 546.208Z" fill="#C9C7C5"/>
<path d="M67.5791 396.442C75.0177 397.025 81.5341 401.848 84.2083 408.82C84.8538 410.479 87.5587 409.772 86.9132 408.083C83.7472 399.851 76.3701 394.322 67.5791 393.647C65.7656 393.493 65.7963 396.288 67.5791 396.442Z" fill="#3F3C36"/>
<path d="M77.5988 375.31C84.3919 374.419 90.9697 378.351 93.1214 384.924C93.6747 386.644 96.4103 385.907 95.8263 384.187C93.3058 376.539 85.6521 371.471 77.5988 372.515C75.816 372.73 75.816 375.556 77.5988 375.31Z" fill="#3F3C36"/>
<path d="M79.5362 426.851C85.2841 427.312 90.571 430.322 93.9522 435.021C95.3661 436.987 96.4727 439.198 97.0567 441.533C97.487 443.222 97.2104 445.096 98.4399 446.386C98.901 446.877 99.5772 446.847 100.13 446.601C100.745 446.324 101.022 445.925 101.145 445.28C101.268 444.666 101.053 443.99 100.499 443.683C100.438 443.652 100.346 443.591 100.284 443.56C98.6858 442.669 97.2719 445.096 98.8702 445.987C98.9317 446.017 99.0239 446.079 99.0854 446.109C98.8702 445.587 98.6551 445.065 98.4399 444.512C98.5321 444.389 98.6243 444.266 98.7165 444.144C99.2698 444.205 99.8538 444.297 100.407 444.359C99.9153 443.836 99.9153 441.41 99.7309 440.734C99.4235 439.567 99.0239 438.431 98.5321 437.325C97.3641 434.714 95.6735 432.349 93.6448 430.383C89.7718 426.605 84.8845 424.424 79.5054 423.994C77.7226 423.902 77.7534 426.728 79.5362 426.851Z" fill="#3F3C36"/>
<path d="M132.188 357.865C136.645 357.865 140.949 357.619 144.545 354.67C147.496 352.274 149.125 348.804 148.08 345.087C147.588 343.336 144.883 344.073 145.375 345.824C146.297 349.049 144.176 351.844 141.471 353.411C138.643 355.069 135.385 355.039 132.188 355.039C130.375 355.039 130.375 357.865 132.188 357.865Z" fill="#3F3C36"/>
<path d="M111.903 421.905C122.6 425.561 132.958 429.984 143.04 435.082C144.639 435.912 146.083 433.485 144.454 432.656C134.188 427.403 123.583 422.919 112.641 419.172C110.95 418.619 110.212 421.322 111.903 421.905Z" fill="#3F3C36"/>
<path d="M103.818 392.235C121.984 397.119 140.181 402.003 158.347 406.886C160.099 407.347 160.837 404.644 159.085 404.183C140.919 399.3 122.722 394.416 104.556 389.532C102.804 389.041 102.066 391.744 103.818 392.235Z" fill="#3F3C36"/>
<path d="M154.505 458.734C155.858 455.324 157.764 452.191 160.161 449.427C161.329 448.075 159.362 446.079 158.163 447.43C155.428 450.594 153.307 454.096 151.77 457.966C151.124 459.686 153.86 460.392 154.505 458.734Z" fill="white"/>
<path d="M167.567 434.684C169.842 430.937 171.625 426.944 172.946 422.767C173.5 421.047 170.764 420.31 170.241 422.03C169.012 425.992 167.291 429.739 165.139 433.272C164.217 434.807 166.645 436.22 167.567 434.684Z" fill="white"/>
<path d="M177.65 406.794C179.647 402.401 181.645 398.009 183.613 393.617C184.35 391.989 181.922 390.545 181.184 392.204C179.186 396.596 177.188 400.988 175.221 405.35C174.484 407.009 176.881 408.422 177.65 406.794Z" fill="white"/>
<path d="M204.7 364.315C207.681 361.366 209.925 357.926 211.462 354.056C212.138 352.366 209.403 351.66 208.757 353.319C207.405 356.759 205.345 359.769 202.702 362.349C201.442 363.578 203.409 365.574 204.7 364.315Z" fill="white"/>
<path d="M222.437 296.863C220.5 294.467 216.935 294.098 214.507 296.033L123.461 369.75C123.369 369.812 123.308 369.904 123.246 369.965C127.734 371.409 132.252 372.514 136.771 373.467L221.607 304.787C224.005 302.852 224.404 299.289 222.437 296.863Z" fill="#3F3C36"/>
<path d="M192.988 336.64C203.285 328.378 213.582 320.085 223.849 311.822C224.617 311.208 224.217 310.071 223.572 309.611C221.144 307.891 219.361 306.048 217.701 303.59C216.687 302.116 214.258 303.498 215.273 305.003C217.179 307.798 219.392 310.071 222.158 312.037C222.066 311.3 221.974 310.563 221.881 309.826C211.584 318.088 201.287 326.381 191.021 334.644C189.576 335.811 191.574 337.777 192.988 336.64Z" fill="#3F3C36"/>
</g>
<defs>
<clipPath id="clip0_1_144">
<rect width="375" height="587" fill="white"/>
</clipPath>
</defs>
</svg>
