<svg width="375" height="538" viewBox="0 0 375 538" fill="none" xmlns="http://www.w3.org/2000/svg">
<g clip-path="url(#clip0_1_422)">
<path d="M-17.7751 133.567C-23.7055 131.128 -27.2316 123.922 -25.6021 117.664C-23.9459 111.406 -17.3209 106.963 -10.9899 107.857C-7.73083 108.318 -4.79235 109.97 -1.93401 111.596C1.69902 113.655 5.33206 115.741 8.96509 117.799C-0.0907812 114.576 -4.47179 103.251 -2.49499 93.7153C-1.05246 86.8612 3.56897 80.3052 10.2474 78.5171C15.6969 77.0542 21.4937 78.8964 26.4891 81.5243C42.0097 89.5975 52.882 104.47 62.1249 119.479C59.2398 115.442 62.4455 109.239 67.1203 107.613C71.7952 106.015 76.9241 107.694 81.3319 109.916C91.1624 114.901 99.3367 124.437 105 134L-17.7751 133.567Z" fill="#F2F5EB"/>
</g>
<g clip-path="url(#clip1_1_422)">
<path d="M382.452 157.45C390.057 154.359 394.58 145.223 392.49 137.288C390.366 129.354 381.87 123.721 373.75 124.854C369.571 125.438 365.802 127.533 362.137 129.594C357.478 132.205 352.818 134.85 348.159 137.46C359.773 133.373 365.391 119.015 362.856 106.925C361.006 98.2348 355.079 89.9226 346.515 87.6557C339.526 85.8009 332.092 88.1365 325.686 91.4683C305.781 101.704 291.838 120.561 279.985 139.59C283.685 134.472 279.574 126.606 273.579 124.545C267.583 122.519 261.006 124.648 255.353 127.465C242.746 133.785 232.263 145.875 225 158L382.452 157.45Z" fill="#F2F5EB"/>
</g>
<g clip-path="url(#clip2_1_422)">
<path d="M-34.0657 376.211C-41.2164 373.326 -45.5027 364.713 -43.5119 357.258C-41.5211 349.802 -33.4969 344.5 -25.8587 345.556C-21.9381 346.105 -18.3627 348.075 -14.9093 350.026C-10.5214 352.484 -6.13349 354.942 -1.74559 357.4C-12.6747 353.54 -17.9768 340.072 -15.5797 328.716C-13.853 320.55 -8.24619 312.749 -0.181389 310.616C6.40045 308.869 13.3886 311.083 19.4626 314.191C38.2127 323.82 51.3561 341.514 62.5086 359.391C59.0146 354.576 62.8946 347.182 68.542 345.272C74.1691 343.363 80.3853 345.353 85.7076 348.015C97.5712 353.967 107.464 365.302 114.29 376.698L-34.0657 376.211Z" fill="#F2F5EB"/>
</g>
<g clip-path="url(#clip3_1_422)">
<path d="M462.436 322.232C473.639 317.691 480.354 304.132 477.235 292.395C474.116 280.659 461.544 272.312 449.577 273.975C443.435 274.838 437.833 277.94 432.422 281.01C425.548 284.88 418.673 288.75 411.798 292.619C428.921 286.543 437.228 265.34 433.473 247.464C430.767 234.608 421.983 222.327 409.347 218.97C399.035 216.219 388.087 219.705 378.57 224.598C349.194 239.756 328.601 267.611 311.128 295.753C316.602 288.174 310.523 276.533 301.675 273.527C292.859 270.521 283.12 273.655 274.781 277.844C256.194 287.214 240.694 305.059 230 323L462.436 322.232Z" fill="#F2F5EB"/>
</g>
<g clip-path="url(#clip4_1_422)">
<path d="M127.916 39.5502C121.487 37.1727 117.649 30.0723 119.441 23.9357C121.232 17.7991 128.428 13.3975 135.272 14.2971C138.791 14.7469 141.989 16.3855 145.091 17.9919C149.025 20.016 152.959 22.0401 156.893 24.0963C147.074 20.9156 142.309 9.79908 144.484 0.449656C146.019 -6.26523 151.072 -12.7231 158.301 -14.4901C164.218 -15.9359 170.486 -14.1046 175.924 -11.5343C192.747 -3.59855 204.549 11.02 214.56 25.7349C211.425 21.7509 214.912 15.6786 219.965 14.0722C225.018 12.4979 230.584 14.1365 235.349 16.3533C246 21.269 254.891 30.6184 261 40L127.916 39.5502Z" fill="#F2F5EB"/>
</g>
<g clip-path="url(#clip5_1_422)">
<path d="M217.008 137.957C219.436 146.582 229.3 150.669 237.11 146.281C247.124 140.64 259.216 148.964 257.588 160.346C256.312 169.222 263.647 176.969 272.559 176.116C284 175.038 291.66 187.574 285.552 197.302C280.77 204.898 284.35 214.952 292.837 217.81C303.702 221.496 305.654 236.062 296.091 242.456C288.656 247.445 287.83 258.075 294.414 264.168C302.85 271.965 298.695 286.055 287.379 288.011C278.567 289.54 273.485 298.917 277.015 307.165C281.571 317.721 272.033 328.903 260.918 326.095C252.231 323.888 243.795 330.407 243.669 339.357C243.544 350.865 230.301 357.208 221.264 350.088C214.229 344.547 203.865 347.054 200.135 355.203C195.353 365.657 180.658 366.059 175.301 355.88C171.12 347.957 160.631 346.001 153.921 351.943C145.31 359.54 131.741 353.924 130.965 342.441C130.364 333.491 121.577 327.448 113.04 330.131C102.075 333.566 91.9616 322.885 95.942 312.105C99.0463 303.681 93.4636 294.58 84.5514 293.552C73.1608 292.223 68.2291 278.358 76.24 270.11C82.4736 263.691 81.0717 253.086 73.3861 248.523C63.5226 242.656 64.6492 227.989 75.3138 223.727C83.6252 220.393 86.6543 210.163 81.4722 202.843C74.8381 193.466 81.8227 180.529 93.2884 180.98C102.226 181.331 109.16 173.208 107.383 164.408C105.13 153.126 116.771 144.175 127.06 149.24C135.096 153.201 144.709 148.588 146.687 139.838C149.215 128.631 163.485 125.171 170.82 133.996C176.552 140.891 187.217 140.59 192.549 133.394C199.434 124.218 213.879 126.901 217.008 137.957Z" fill="#4F3422"/>
<path d="M358.203 408.532C348.815 375.638 319.9 352.171 285.828 349.764C207.847 344.223 74.6892 342.218 46.4255 372.454C56.0387 364.381 37.1878 382.332 46.4255 372.454C3.19126 408.732 -3.54297 496.734 -3.54297 496.734L97.4454 496.032L378.706 496.834C380.258 488.811 368.617 445.086 358.203 408.532Z" fill="#9BB168"/>
<path d="M226.674 313.234L219.714 291.071C225.547 292.45 231.956 290.996 236.687 286.608C244.273 279.588 244.748 267.754 237.739 260.158C230.729 252.561 218.913 252.085 211.328 259.105C210.877 259.531 210.451 259.957 210.051 260.408L201.84 234.284C200.813 231.05 197.609 229.044 194.254 229.545C177.631 232.027 131.218 243.686 127.838 296.336C127.588 300.322 130.717 303.732 134.723 303.732L155.201 303.707L153.574 317.948C178.257 322.686 202.841 320.104 226.674 313.234Z" fill="#CFD9B5"/>
<path d="M226.672 313.234C202.864 320.129 178.256 322.686 153.597 317.948L148.74 360.494C146.287 381.931 158.754 402.64 179.157 409.585C180.108 409.91 181.084 410.211 182.061 410.512C217.409 420.792 249.779 386.769 238.713 351.594L226.672 313.234Z" fill="#9BB168"/>
<path d="M163.26 245.793C153.146 251.033 143.007 256.248 132.894 261.488C131.567 262.165 131.442 264.096 132.418 265.099C135.422 268.157 138.401 271.191 141.405 274.25C143.483 276.356 146.713 273.122 144.635 271.015C141.631 267.957 138.651 264.923 135.647 261.864C135.497 263.068 135.347 264.271 135.172 265.475C145.286 260.235 155.424 255.02 165.538 249.78C168.192 248.401 165.864 244.44 163.26 245.793Z" fill="#4F3422"/>
<path d="M160.382 281.294C160.657 283.65 157.904 285.807 155.751 284.478C153.222 282.948 150.919 286.91 153.447 288.439C158.329 291.423 165.639 287.16 164.988 281.294C164.838 280.065 164.037 279.012 162.685 279.012C161.559 278.987 160.257 280.04 160.382 281.294Z" fill="#4F3422"/>
<path d="M227.524 268.43C223.593 269.759 219.663 271.088 215.733 272.416C212.954 273.369 214.155 277.782 216.959 276.829C220.89 275.5 224.82 274.171 228.75 272.843C231.529 271.915 230.328 267.477 227.524 268.43Z" fill="#4F3422"/>
<path d="M172.2 259.504C176.581 269.407 190.25 271.94 198.286 265.07C200.539 263.139 197.285 259.905 195.057 261.836C189.049 266.975 179.285 264.217 176.181 257.197C174.979 254.49 171.024 256.821 172.2 259.504Z" fill="#4F3422"/>
<path d="M175.954 261.335C174.276 263.04 172.574 264.72 170.897 266.425C168.819 268.506 172.048 271.765 174.126 269.659C175.803 267.954 177.506 266.274 179.183 264.569C181.286 262.488 178.057 259.254 175.954 261.335Z" fill="#4F3422"/>
<path d="M183.188 267.956C183.213 269.66 183.238 271.34 183.263 273.045C183.288 276.004 187.894 276.004 187.844 273.045C187.819 271.34 187.794 269.66 187.769 267.956C187.719 265.022 183.138 264.997 183.188 267.956Z" fill="#4F3422"/>
<path d="M192.2 267.906C192.751 269.411 193.277 270.94 193.827 272.444C194.253 273.597 195.38 274.4 196.656 274.049C197.783 273.748 198.684 272.394 198.259 271.216C197.708 269.711 197.182 268.182 196.631 266.678C196.206 265.499 195.079 264.722 193.802 265.073C192.676 265.399 191.8 266.753 192.2 267.906Z" fill="#4F3422"/>
<path d="M207.973 436.336C207.973 440.724 204.418 444.309 200.012 444.309C195.631 444.309 192.051 440.749 192.051 436.336C192.051 431.949 195.606 428.363 200.012 428.363C204.418 428.363 207.973 431.923 207.973 436.336Z" fill="#4F3422"/>
<path d="M92.7646 411.167C67.2546 424.279 41.7447 437.392 16.2097 450.504C10.3517 453.513 4.49365 456.521 -1.36438 459.53C-10.9775 464.494 -18.7882 471.038 -23.019 481.317C-26.7742 490.418 -27.2248 502.979 -22.969 512.055C-18.5629 521.457 -11.278 530.081 -1.2392 533.742C8.29886 537.202 20.065 538.505 29.4528 533.692C45.4498 525.468 61.4717 517.245 77.4686 508.996C100.475 497.162 123.482 485.354 146.488 473.52C133.32 450.354 120.252 427.112 107.91 403.395C102.853 406.002 97.7965 408.584 92.7646 411.167Z" fill="#9BB168"/>
<path d="M171.574 460.631C181.187 455.692 188.998 449.148 193.229 438.869C196.984 429.768 197.434 417.207 193.179 408.131C188.773 398.729 181.488 390.105 171.449 386.444C161.911 382.984 170.247 369.22 160.859 374.059C149.894 379.7 118.852 397.777 107.887 403.393C120.229 427.135 133.272 450.377 146.465 473.518C148.968 472.239 151.496 470.935 154 469.657C159.858 466.648 165.716 463.64 171.574 460.631Z" fill="#CFD9B5"/>
<path d="M175.878 404.568C178.907 384.235 181.936 363.877 184.966 343.544C185.842 337.627 181.586 331.109 175.427 330.432C169.294 329.755 163.286 333.641 162.335 339.984C159.305 360.317 156.276 380.675 153.247 401.008C152.371 406.925 156.627 413.444 162.785 414.121C168.919 414.823 174.927 410.911 175.878 404.568Z" fill="#CFD9B5"/>
<path d="M176.981 404.869C179.26 389.501 181.563 374.107 183.841 358.738C185.193 349.612 190.049 335.221 178.759 330.181C174.778 328.401 169.872 329.128 166.342 331.585C161.961 334.619 161.285 339.182 160.559 344.146C158.281 359.54 155.978 374.909 153.7 390.303C153.474 391.757 155.702 392.359 155.903 390.905C157.755 378.494 159.583 366.084 161.435 353.673C161.886 350.69 162.311 347.706 162.762 344.748C163.163 342.065 163.263 339.132 164.64 336.7C167.468 331.736 174.578 329.855 179.335 333.115C185.017 337.026 183.866 343.269 182.99 349.16C182.113 355.102 181.212 361.069 180.336 367.011C178.484 379.422 176.656 391.807 174.803 404.218C174.553 405.722 176.756 406.324 176.981 404.869Z" fill="#4F3422"/>
<path d="M181.36 443.153C186.542 409.983 191.725 376.789 196.907 343.619C197.833 337.702 193.627 331.158 187.444 330.431C181.31 329.704 175.277 333.565 174.276 339.908C169.094 373.078 163.911 406.273 158.729 439.443C157.803 445.359 162.009 451.903 168.192 452.63C174.326 453.357 180.359 449.496 181.36 443.153Z" fill="#CFD9B5"/>
<path d="M188.272 410.386C190.175 397.549 192.103 384.713 194.005 371.901C194.956 365.483 195.908 359.065 196.859 352.646C197.535 348.033 199.162 342.843 197.785 338.205C195.632 330.934 187.997 327.324 181.037 330.107C177.533 331.511 174.754 334.419 173.677 338.055C171.95 343.896 171.7 350.565 170.798 356.608C168.62 371.174 166.467 385.716 164.289 400.282C164.064 401.736 166.292 402.338 166.492 400.884C168.545 387.07 170.598 373.255 172.651 359.441C173.602 353.047 174.228 346.529 175.505 340.186C176.731 334.093 182.965 329.756 189.174 331.862C196.609 334.394 196.108 342.066 195.157 348.309C194.155 354.978 193.179 361.647 192.178 368.291C190.125 382.105 188.072 395.92 186.019 409.759C185.844 411.213 188.047 411.84 188.272 410.386Z" fill="#4F3422"/>
<path d="M182.639 351.918C178.959 376.638 175.279 401.359 171.599 426.079C170.722 431.996 174.978 438.515 181.137 439.192C187.27 439.869 193.278 435.983 194.23 429.639C197.91 404.919 201.59 380.198 205.27 355.478C206.146 349.561 201.89 343.042 195.732 342.365C189.598 341.688 183.59 345.574 182.639 351.918Z" fill="#CFD9B5"/>
<path d="M193.403 442.953C197.484 415.6 201.539 388.247 205.62 360.894C206.396 355.754 207.322 350.941 204.143 346.378C201.239 342.216 196.357 340.386 191.401 341.464C179.835 343.971 180.561 358.136 179.184 367.413C177.131 381.277 175.053 395.142 173 409.032C172.775 410.486 175.003 411.087 175.203 409.633C176.73 399.304 178.283 388.974 179.81 378.645C180.636 373.004 181.487 367.363 182.313 361.747C182.989 357.184 182.864 350.84 185.993 347.205C190.7 341.765 199.437 342.391 202.916 348.81C205.645 353.874 203.292 360.869 202.491 366.234C200.663 378.519 198.836 390.83 197.008 403.115C195.056 416.177 193.128 429.264 191.175 442.327C190.975 443.781 193.178 444.408 193.403 442.953Z" fill="#4F3422"/>
<path d="M293.239 412.344C318.749 425.457 344.259 438.569 369.794 451.681C375.652 454.69 381.51 457.699 387.368 460.707C396.981 465.646 404.792 472.19 409.023 482.469C412.778 491.57 413.229 504.131 408.973 513.207C404.567 522.609 397.282 531.259 387.243 534.894C377.705 538.354 365.939 539.658 356.551 534.844C340.554 526.62 324.532 518.397 308.535 510.148C285.529 498.315 262.522 486.506 239.516 474.672C252.684 451.506 265.752 428.265 278.093 404.547C283.15 407.154 288.207 409.762 293.239 412.344Z" fill="#9BB168"/>
<path d="M214.433 461.783C204.819 456.844 197.009 450.301 192.778 440.021C189.023 430.92 188.572 418.359 192.828 409.283C197.234 399.882 204.519 391.232 214.558 387.597C224.096 384.137 215.759 370.372 225.147 375.211C236.112 380.852 267.155 398.929 278.12 404.57C265.778 428.313 252.735 451.554 239.542 474.695C237.038 473.417 234.51 472.113 232.007 470.834C226.149 467.826 220.291 464.817 214.433 461.783Z" fill="#CFD9B5"/>
<path d="M210.124 405.748C207.094 385.415 204.065 365.057 201.036 344.724C200.16 338.807 204.416 332.288 210.574 331.611C216.708 330.934 222.716 334.821 223.667 341.164C226.696 361.497 229.725 381.855 232.755 402.188C233.631 408.105 229.375 414.623 223.217 415.3C217.083 415.977 211.075 412.091 210.124 405.748Z" fill="#CFD9B5"/>
<path d="M211.227 405.444C209.375 393.034 207.547 380.648 205.695 368.238C204.819 362.296 203.917 356.329 203.041 350.387C202.165 344.495 200.988 338.252 206.696 334.341C211.453 331.057 218.537 332.962 221.391 337.926C222.768 340.308 222.868 343.292 223.269 345.974C223.72 348.958 224.145 351.941 224.596 354.9C226.448 367.31 228.276 379.721 230.128 392.131C230.354 393.585 232.557 392.959 232.331 391.529C230.053 376.136 227.75 360.767 225.472 345.373C224.721 340.408 224.07 335.845 219.689 332.812C216.159 330.355 211.252 329.628 207.272 331.408C195.957 336.447 200.838 350.813 202.19 359.964C204.468 375.333 206.771 390.727 209.049 406.096C209.225 407.5 211.453 406.873 211.227 405.444Z" fill="#4F3422"/>
<path d="M204.643 444.333C199.461 411.163 194.279 377.968 189.097 344.799C188.17 338.882 192.376 332.338 198.56 331.611C204.693 330.884 210.726 334.745 211.728 341.088C216.91 374.258 222.092 407.452 227.274 440.622C228.2 446.539 223.994 453.083 217.811 453.81C211.677 454.537 205.644 450.676 204.643 444.333Z" fill="#CFD9B5"/>
<path d="M199.935 410.937C197.882 397.122 195.829 383.308 193.776 369.468C192.825 363.05 191.873 356.631 190.922 350.213C189.971 343.795 189.045 335.672 196.805 333.039C202.638 331.058 209.072 334.945 210.374 340.836C211.776 347.305 212.377 354.049 213.328 360.593C215.381 374.407 217.433 388.222 219.486 402.036C219.712 403.49 221.915 402.863 221.689 401.434C219.787 388.598 217.859 375.761 215.956 362.949C215.005 356.531 214.054 350.113 213.103 343.694C212.477 339.558 211.676 335.972 208.296 333.215C202.388 328.376 193.426 329.679 189.495 336.323C187.142 340.31 187.693 344.221 188.344 348.583C189.295 355.002 190.246 361.42 191.198 367.838C193.376 382.405 195.528 396.947 197.706 411.513C197.932 413.017 200.16 412.391 199.935 410.937Z" fill="#4F3422"/>
<path d="M203.366 353.097C207.046 377.818 210.726 402.538 214.407 427.259C215.283 433.176 211.027 439.694 204.868 440.371C198.735 441.048 192.727 437.162 191.776 430.819C188.095 406.099 184.415 381.378 180.735 356.657C179.859 350.74 184.115 344.222 190.273 343.545C196.407 342.868 202.415 346.754 203.366 353.097Z" fill="#CFD9B5"/>
<path d="M194.804 443.505C191.249 419.662 187.695 395.794 184.165 371.951C183.364 366.511 181.786 360.644 181.786 355.153C181.761 347.807 188.871 342.743 195.756 345.375C201.814 347.707 202.29 353.423 203.116 359.014C203.917 364.43 204.718 369.845 205.544 375.261C207.296 387.094 209.074 398.928 210.826 410.787C211.052 412.241 213.255 411.614 213.029 410.185C211.202 397.975 209.399 385.766 207.572 373.531C206.696 367.589 205.794 361.647 204.918 355.705C204.142 350.565 202.64 346.127 197.683 343.695C187.544 338.731 178.357 347.682 179.784 357.936C181.661 371.324 183.764 384.662 185.742 398.026C188.02 413.394 190.323 428.738 192.601 444.107C192.802 445.586 195.03 444.96 194.804 443.505Z" fill="#4F3422"/>
<path d="M5.64479 457.246C35.0351 441.551 64.4503 425.856 93.8406 410.161C97.9963 407.93 102.152 405.724 106.308 403.492C107.609 402.79 106.458 400.81 105.156 401.512C75.7658 417.206 46.3506 432.901 16.9603 448.596C12.8046 450.827 8.64891 453.034 4.49321 455.265C3.1664 455.967 4.34301 457.948 5.64479 457.246Z" fill="#4F3422"/>
<path d="M365.288 448.093C339.979 434.931 314.694 421.743 289.384 408.58C285.854 406.75 282.325 404.895 278.77 403.065C277.468 402.388 276.291 404.368 277.618 405.045C302.928 418.208 328.213 431.396 353.522 444.558C357.052 446.388 360.582 448.244 364.137 450.074C365.439 450.751 366.59 448.77 365.288 448.093Z" fill="#4F3422"/>
<path d="M22.8198 434.731C28.2272 436.211 33.6346 437.665 39.0671 439.144C40.494 439.52 41.0949 437.314 39.6679 436.938C34.2605 435.458 28.8531 434.004 23.4207 432.525C21.9937 432.124 21.3929 434.33 22.8198 434.731Z" fill="#4F3422"/>
<path d="M342.282 437.138C346.612 435.784 350.843 434.155 354.974 432.249C356.301 431.648 355.149 429.667 353.822 430.269C349.867 432.074 345.811 433.628 341.681 434.932C340.279 435.358 340.88 437.59 342.282 437.138Z" fill="#4F3422"/>
<path d="M292.965 223.88C297.17 233.031 308.736 232.53 315.771 227.215C323.306 221.498 330.892 209.238 327.587 199.486C325.134 192.24 314.069 187.852 309.888 196.226C308.085 199.811 309.512 204.099 312.291 206.781C315.846 210.191 321.278 210.768 325.96 210.918C337.05 211.294 350.018 206.305 351.72 193.895C352.121 191.011 347.715 189.758 347.314 192.666C346.062 201.667 337.551 205.929 329.214 206.305C325.259 206.48 320.352 206.506 316.822 204.425C314.895 203.296 313.292 201.215 313.843 198.934C314.394 196.577 317.123 195.8 319.226 196.477C323.532 197.881 324.157 203.296 323.431 207.057C322.555 211.57 320.027 216.033 317.123 219.543C312.391 225.234 301.251 230.95 296.945 221.524C295.668 218.891 291.738 221.223 292.965 223.88Z" fill="#4F3422"/>
<path d="M46.0487 162.753C45.2226 173.584 54.2349 182.96 65.1499 181.882C75.8145 180.804 83.0744 170.299 80.3457 159.895C79.3443 156.109 76.165 151.646 71.809 154.103C67.4531 156.56 66.5268 163.104 67.1276 167.541C68.8049 179.826 80.2205 186.119 91.0354 189.329C93.8642 190.181 95.0659 185.743 92.262 184.916C85.5028 182.91 78.2679 179.952 74.2624 173.809C72.2596 170.725 71.058 166.789 71.6588 163.079C71.784 162.352 71.9592 161.599 72.2346 160.922C72.535 160.095 73.8118 158.114 75.0134 158.691C76.1149 159.218 76.3402 163.48 76.3402 164.282C76.3903 171.703 70.3821 177.595 62.9719 177.395C55.2363 177.194 50.0792 170.174 50.63 162.753C50.8553 159.819 46.274 159.819 46.0487 162.753Z" fill="#4F3422"/>
<path d="M50.0311 337.3C55.8641 342.816 65.1268 343.844 71.9612 339.482C75.6913 337.1 77.9444 333.339 79.4965 329.303C81.0486 325.166 82.9512 319.6 80.4728 315.413C78.7455 312.48 74.6899 310.574 71.5356 312.379C68.3312 314.209 67.8806 318.346 68.8819 321.555C71.3353 329.503 80.5479 333.464 88.2835 333.063C99.2736 332.487 107.585 324.163 113.518 315.639C115.195 313.207 111.24 310.925 109.563 313.332C105.232 319.55 99.6241 325.667 92.1138 327.823C86.0054 329.578 77.9944 328.049 74.3394 322.408C73.6635 321.355 72.587 319.449 72.9625 318.121C74.064 314.184 76.3672 317.494 76.7928 318.873C77.1933 320.177 76.9931 321.38 76.7177 322.684C75.9666 326.444 74.4646 330.782 71.811 333.64C66.9793 338.83 58.2924 338.805 53.2605 334.016C51.1326 332.01 47.8782 335.27 50.0311 337.3Z" fill="#4F3422"/>
<path d="M241.166 157.589C237.011 150.97 237.586 141.769 243.57 136.378C248.727 131.74 261.069 129.584 265.224 136.83C266.626 139.287 265.6 142.621 262.245 141.894C259.642 141.317 258.465 138.635 258.265 136.203C257.939 132.392 259.391 128.431 261.319 125.221C265.224 118.753 272.109 114.315 279.619 113.588C282.523 113.313 282.548 108.724 279.619 109C270.431 109.853 262.145 114.942 257.364 122.89C253.358 129.534 250.629 142.596 260.167 146.031C263.522 147.234 267.552 146.457 269.505 143.273C271.959 139.312 270.106 134.473 266.801 131.665C259.767 125.748 248.576 126.701 241.592 132.091C233.155 138.61 231.653 151.045 237.211 159.896C238.788 162.403 242.743 160.096 241.166 157.589Z" fill="#4F3422"/>
</g>
<defs>
<clipPath id="clip0_1_422">
<rect width="105" height="56" fill="white" transform="translate(0 78)"/>
</clipPath>
<clipPath id="clip1_1_422">
<rect width="150" height="71" fill="white" transform="translate(225 87)"/>
</clipPath>
<clipPath id="clip2_1_422">
<rect width="115" height="67" fill="white" transform="translate(0 310)"/>
</clipPath>
<clipPath id="clip3_1_422">
<rect width="145" height="105" fill="white" transform="translate(230 218)"/>
</clipPath>
<clipPath id="clip4_1_422">
<rect width="142" height="40" fill="white" transform="translate(119)"/>
</clipPath>
<clipPath id="clip5_1_422">
<rect width="375" height="430" fill="white" transform="translate(0 108)"/>
</clipPath>
</defs>
</svg>
